G04*
G04 #@! TF.GenerationSoftware,Altium Limited,Altium Designer,21.6.1 (37)*
G04*
G04 Layer_Color=16711935*
%FSLAX25Y25*%
%MOIN*%
G70*
G04*
G04 #@! TF.SameCoordinates,35447041-0B5E-4321-A350-582B76B9CE47*
G04*
G04*
G04 #@! TF.FilePolarity,Negative*
G04*
G01*
G75*
%ADD29R,0.06496X0.06496*%
%ADD31R,0.06890X0.06890*%
%ADD32C,0.06890*%
%ADD33R,0.06890X0.06890*%
%ADD34C,0.07874*%
%ADD35R,0.07874X0.07874*%
%ADD36C,0.06496*%
%ADD37R,0.06496X0.06496*%
%ADD38C,0.18307*%
%ADD39C,0.02559*%
D29*
X62992Y58740D02*
D03*
X143701Y125827D02*
D03*
D31*
X68898Y19685D02*
D03*
X112205D02*
D03*
X155512D02*
D03*
X96457Y137795D02*
D03*
D32*
X88583Y19685D02*
D03*
X131890D02*
D03*
X175197D02*
D03*
X177165Y143701D02*
D03*
X76772Y137795D02*
D03*
D33*
X177165Y124016D02*
D03*
D34*
X12795Y13366D02*
D03*
X42323Y107067D02*
D03*
Y79508D02*
D03*
X12795Y93287D02*
D03*
D35*
X42323Y13366D02*
D03*
D36*
X62992Y88740D02*
D03*
Y78740D02*
D03*
Y68740D02*
D03*
X136299Y57087D02*
D03*
X126299D02*
D03*
X116299D02*
D03*
X106299D02*
D03*
X133701Y125827D02*
D03*
X143701Y135827D02*
D03*
X133701D02*
D03*
X143701Y145827D02*
D03*
X133701D02*
D03*
D37*
X96299Y57087D02*
D03*
D38*
X165354Y70866D02*
D03*
D39*
X88779Y86417D02*
D03*
X84449D02*
D03*
X88779Y90748D02*
D03*
X84449D02*
D03*
M02*
