G04*
G04 #@! TF.GenerationSoftware,Altium Limited,Altium Designer,21.6.1 (37)*
G04*
G04 Layer_Color=8388736*
%FSLAX25Y25*%
%MOIN*%
G70*
G04*
G04 #@! TF.SameCoordinates,35447041-0B5E-4321-A350-582B76B9CE47*
G04*
G04*
G04 #@! TF.FilePolarity,Negative*
G04*
G01*
G75*
G04:AMPARAMS|DCode=20|XSize=73.78mil|YSize=21.34mil|CornerRadius=10.67mil|HoleSize=0mil|Usage=FLASHONLY|Rotation=0.000|XOffset=0mil|YOffset=0mil|HoleType=Round|Shape=RoundedRectangle|*
%AMROUNDEDRECTD20*
21,1,0.07378,0.00000,0,0,0.0*
21,1,0.05244,0.02134,0,0,0.0*
1,1,0.02134,0.02622,0.00000*
1,1,0.02134,-0.02622,0.00000*
1,1,0.02134,-0.02622,0.00000*
1,1,0.02134,0.02622,0.00000*
%
%ADD20ROUNDEDRECTD20*%
%ADD21R,0.07378X0.02134*%
%ADD22R,0.03543X0.02953*%
%ADD24R,0.03347X0.04134*%
%ADD25R,0.04134X0.03347*%
%ADD26R,0.11221X0.11221*%
%ADD27O,0.01575X0.03740*%
%ADD28O,0.03740X0.01575*%
%ADD29R,0.06496X0.06496*%
%ADD30R,0.04331X0.03740*%
%ADD31R,0.06890X0.06890*%
%ADD32C,0.06890*%
%ADD33R,0.06890X0.06890*%
%ADD34C,0.07874*%
%ADD35R,0.07874X0.07874*%
%ADD36C,0.06496*%
%ADD37R,0.06496X0.06496*%
%ADD38C,0.18307*%
%ADD39C,0.02559*%
D20*
X144945Y105551D02*
D03*
Y100551D02*
D03*
Y95551D02*
D03*
Y90551D02*
D03*
Y85551D02*
D03*
Y80551D02*
D03*
Y75551D02*
D03*
X126708D02*
D03*
Y80551D02*
D03*
Y85551D02*
D03*
Y90551D02*
D03*
Y95551D02*
D03*
Y100551D02*
D03*
D21*
Y105551D02*
D03*
D22*
X101402Y99984D02*
D03*
Y95260D02*
D03*
D24*
X54134Y124016D02*
D03*
X60039D02*
D03*
X54134Y129921D02*
D03*
X60039D02*
D03*
X54134Y135827D02*
D03*
X60039D02*
D03*
D25*
X153543Y99410D02*
D03*
Y105315D02*
D03*
Y87598D02*
D03*
Y93504D02*
D03*
X112205Y105315D02*
D03*
Y99409D02*
D03*
X118110Y99410D02*
D03*
Y105315D02*
D03*
X101378Y86614D02*
D03*
Y80709D02*
D03*
D26*
X86614Y88583D02*
D03*
D27*
X82677Y96457D02*
D03*
X84646D02*
D03*
X86614D02*
D03*
X88583D02*
D03*
X90551D02*
D03*
Y80709D02*
D03*
X88583D02*
D03*
X86614D02*
D03*
X84646D02*
D03*
X82677D02*
D03*
D28*
X94488Y92520D02*
D03*
Y90551D02*
D03*
Y88583D02*
D03*
Y86614D02*
D03*
Y84646D02*
D03*
X78740D02*
D03*
Y86614D02*
D03*
Y88583D02*
D03*
Y90551D02*
D03*
Y92520D02*
D03*
D29*
X19685Y126969D02*
D03*
Y140748D02*
D03*
X43307Y126969D02*
D03*
Y140748D02*
D03*
X31496Y126969D02*
D03*
Y140748D02*
D03*
X62992Y58740D02*
D03*
X143701Y125827D02*
D03*
D30*
X73819Y101772D02*
D03*
Y106890D02*
D03*
D31*
X68898Y19685D02*
D03*
X112205D02*
D03*
X155512D02*
D03*
X96457Y137795D02*
D03*
D32*
X88583Y19685D02*
D03*
X131890D02*
D03*
X175197D02*
D03*
X177165Y143701D02*
D03*
X76772Y137795D02*
D03*
D33*
X177165Y124016D02*
D03*
D34*
X12795Y13366D02*
D03*
X42323Y107067D02*
D03*
Y79508D02*
D03*
X12795Y93287D02*
D03*
D35*
X42323Y13366D02*
D03*
D36*
X62992Y88740D02*
D03*
Y78740D02*
D03*
Y68740D02*
D03*
X136299Y57087D02*
D03*
X126299D02*
D03*
X116299D02*
D03*
X106299D02*
D03*
X133701Y125827D02*
D03*
X143701Y135827D02*
D03*
X133701D02*
D03*
X143701Y145827D02*
D03*
X133701D02*
D03*
D37*
X96299Y57087D02*
D03*
D38*
X165354Y70866D02*
D03*
D39*
X88779Y86417D02*
D03*
X84449D02*
D03*
X88779Y90748D02*
D03*
X84449D02*
D03*
M02*
