G04*
G04 #@! TF.GenerationSoftware,Altium Limited,Altium Designer,21.6.1 (37)*
G04*
G04 Layer_Color=65535*
%FSLAX25Y25*%
%MOIN*%
G70*
G04*
G04 #@! TF.SameCoordinates,35447041-0B5E-4321-A350-582B76B9CE47*
G04*
G04*
G04 #@! TF.FilePolarity,Positive*
G04*
G01*
G75*
%ADD10C,0.00984*%
%ADD11C,0.01000*%
%ADD12C,0.00787*%
%ADD13C,0.00800*%
G36*
X184425Y104479D02*
X184530Y104434D01*
X184635Y104359D01*
X184650Y104329D01*
X184695Y104269D01*
X184755Y104164D01*
X184770Y104014D01*
Y98588D01*
X184755Y98498D01*
X184710Y98378D01*
X184635Y98273D01*
X184605Y98258D01*
X184545Y98213D01*
X184440Y98153D01*
X184305Y98138D01*
X183885D01*
X183870D01*
X183840D01*
X183795D01*
X183735D01*
X183645Y98153D01*
X183555D01*
X183331Y98168D01*
X183076Y98198D01*
X182791Y98258D01*
X182491Y98318D01*
X182206Y98408D01*
X182191D01*
X182176Y98423D01*
X182131Y98438D01*
X182071Y98468D01*
X181936Y98528D01*
X181757Y98618D01*
X181547Y98738D01*
X181337Y98873D01*
X181112Y99038D01*
X180917Y99218D01*
X177649Y102485D01*
X177634Y102500D01*
X177559Y102560D01*
X177454Y102635D01*
X177304Y102725D01*
X177095Y102830D01*
X176855Y102920D01*
X176570Y102995D01*
X176240Y103040D01*
Y99008D01*
X176225Y98918D01*
X176180Y98798D01*
X176105Y98693D01*
X176075Y98678D01*
X176000Y98633D01*
X175896Y98573D01*
X175761Y98558D01*
X175401D01*
X175386D01*
X175356D01*
X175266Y98573D01*
X175161Y98618D01*
X175056Y98693D01*
X175041Y98723D01*
X174981Y98783D01*
X174936Y98903D01*
X174921Y99038D01*
Y104059D01*
X174936Y104149D01*
X174981Y104254D01*
X175056Y104359D01*
X175071Y104374D01*
X175146Y104434D01*
X175251Y104479D01*
X175401Y104494D01*
X175805D01*
X175821D01*
X175836D01*
X175881D01*
X175940D01*
X176090Y104479D01*
X176285Y104464D01*
X176510Y104419D01*
X176765Y104374D01*
X177035Y104299D01*
X177304Y104209D01*
X177320D01*
X177334Y104194D01*
X177425Y104164D01*
X177559Y104089D01*
X177724Y104014D01*
X177904Y103894D01*
X178114Y103760D01*
X178309Y103595D01*
X178504Y103415D01*
X181772Y100162D01*
X181787Y100147D01*
X181861Y100087D01*
X181981Y99997D01*
X182161Y99907D01*
X182386Y99802D01*
X182536Y99757D01*
X182686Y99712D01*
X182851Y99667D01*
X183031Y99637D01*
X183241Y99607D01*
X183450Y99592D01*
Y104044D01*
X183465Y104134D01*
X183510Y104254D01*
X183585Y104359D01*
X183615Y104374D01*
X183675Y104434D01*
X183780Y104479D01*
X183930Y104494D01*
X184305D01*
X184320D01*
X184335D01*
X184425Y104479D01*
D02*
G37*
G36*
Y96609D02*
X184530Y96564D01*
X184635Y96489D01*
X184650Y96459D01*
X184695Y96399D01*
X184755Y96294D01*
X184770Y96145D01*
Y90718D01*
X184755Y90628D01*
X184710Y90508D01*
X184635Y90403D01*
X184605Y90389D01*
X184545Y90343D01*
X184440Y90284D01*
X184305Y90269D01*
X183885D01*
X183870D01*
X183840D01*
X183795D01*
X183735D01*
X183645Y90284D01*
X183555D01*
X183331Y90298D01*
X183076Y90329D01*
X182791Y90389D01*
X182491Y90448D01*
X182206Y90538D01*
X182191D01*
X182176Y90553D01*
X182131Y90568D01*
X182071Y90598D01*
X181936Y90658D01*
X181757Y90748D01*
X181547Y90868D01*
X181337Y91003D01*
X181112Y91168D01*
X180917Y91348D01*
X177649Y94616D01*
X177634Y94631D01*
X177559Y94691D01*
X177454Y94766D01*
X177304Y94855D01*
X177095Y94960D01*
X176855Y95050D01*
X176570Y95125D01*
X176240Y95170D01*
Y91138D01*
X176225Y91048D01*
X176180Y90928D01*
X176105Y90823D01*
X176075Y90808D01*
X176000Y90763D01*
X175896Y90703D01*
X175761Y90688D01*
X175401D01*
X175386D01*
X175356D01*
X175266Y90703D01*
X175161Y90748D01*
X175056Y90823D01*
X175041Y90853D01*
X174981Y90913D01*
X174936Y91033D01*
X174921Y91168D01*
Y96190D01*
X174936Y96280D01*
X174981Y96385D01*
X175056Y96489D01*
X175071Y96504D01*
X175146Y96564D01*
X175251Y96609D01*
X175401Y96624D01*
X175805D01*
X175821D01*
X175836D01*
X175881D01*
X175940D01*
X176090Y96609D01*
X176285Y96594D01*
X176510Y96549D01*
X176765Y96504D01*
X177035Y96429D01*
X177304Y96339D01*
X177320D01*
X177334Y96324D01*
X177425Y96294D01*
X177559Y96220D01*
X177724Y96145D01*
X177904Y96025D01*
X178114Y95890D01*
X178309Y95725D01*
X178504Y95545D01*
X181772Y92292D01*
X181787Y92277D01*
X181861Y92217D01*
X181981Y92127D01*
X182161Y92037D01*
X182386Y91932D01*
X182536Y91887D01*
X182686Y91843D01*
X182851Y91798D01*
X183031Y91768D01*
X183241Y91738D01*
X183450Y91723D01*
Y96175D01*
X183465Y96265D01*
X183510Y96385D01*
X183585Y96489D01*
X183615Y96504D01*
X183675Y96564D01*
X183780Y96609D01*
X183930Y96624D01*
X184305D01*
X184320D01*
X184335D01*
X184425Y96609D01*
D02*
G37*
G36*
X184200Y88605D02*
X184290Y88575D01*
X184380Y88530D01*
X184470Y88470D01*
X184545Y88395D01*
X184620Y88275D01*
Y88260D01*
X184635Y88230D01*
X184665Y88170D01*
X184680Y88095D01*
X184710Y88005D01*
X184755Y87900D01*
X184829Y87645D01*
X184905Y87345D01*
X184979Y87016D01*
X185024Y86656D01*
X185039Y86296D01*
Y86221D01*
X185024Y86131D01*
Y86011D01*
X185009Y85877D01*
X184979Y85712D01*
X184934Y85517D01*
X184889Y85322D01*
X184829Y85112D01*
X184755Y84887D01*
X184650Y84677D01*
X184545Y84452D01*
X184410Y84228D01*
X184245Y84018D01*
X184065Y83823D01*
X183855Y83628D01*
X183840Y83613D01*
X183795Y83583D01*
X183735Y83538D01*
X183630Y83478D01*
X183510Y83403D01*
X183361Y83328D01*
X183196Y83238D01*
X183001Y83148D01*
X182776Y83058D01*
X182521Y82968D01*
X182251Y82894D01*
X181951Y82819D01*
X181637Y82759D01*
X181292Y82714D01*
X180917Y82684D01*
X180527Y82669D01*
X179298D01*
X179268D01*
X179208D01*
X179088D01*
X178953Y82684D01*
X178774Y82699D01*
X178564Y82714D01*
X178339Y82744D01*
X178084Y82788D01*
X177559Y82908D01*
X177275Y82983D01*
X177005Y83073D01*
X176735Y83178D01*
X176465Y83313D01*
X176210Y83463D01*
X175985Y83628D01*
X175970Y83643D01*
X175940Y83673D01*
X175881Y83733D01*
X175791Y83808D01*
X175701Y83898D01*
X175611Y84018D01*
X175491Y84168D01*
X175386Y84317D01*
X175281Y84497D01*
X175161Y84707D01*
X175071Y84917D01*
X174966Y85157D01*
X174891Y85412D01*
X174831Y85697D01*
X174801Y85981D01*
X174786Y86296D01*
Y86461D01*
X174801Y86551D01*
Y86656D01*
X174831Y86911D01*
X174891Y87196D01*
X174966Y87525D01*
X175071Y87885D01*
X175206Y88245D01*
Y88260D01*
X175236Y88290D01*
X175296Y88395D01*
X175356Y88440D01*
X175431Y88485D01*
X175521Y88515D01*
X175626Y88530D01*
X175641D01*
X175686D01*
X175746Y88515D01*
X175836Y88485D01*
X176165Y88350D01*
X176180D01*
X176210Y88320D01*
X176315Y88260D01*
X176420Y88125D01*
X176450Y88050D01*
X176465Y87945D01*
Y87885D01*
X176450Y87825D01*
X176435Y87750D01*
Y87735D01*
X176420Y87720D01*
X176405Y87660D01*
X176390Y87600D01*
X176330Y87450D01*
X176270Y87241D01*
X176225Y87016D01*
X176165Y86761D01*
X176135Y86506D01*
X176120Y86266D01*
Y86161D01*
X176135Y86101D01*
X176150Y86011D01*
X176165Y85906D01*
X176225Y85667D01*
X176315Y85412D01*
X176465Y85142D01*
X176555Y85022D01*
X176660Y84887D01*
X176780Y84767D01*
X176930Y84662D01*
X176945D01*
X176960Y84632D01*
X177020Y84617D01*
X177080Y84572D01*
X177170Y84542D01*
X177275Y84497D01*
X177394Y84438D01*
X177529Y84392D01*
X177694Y84347D01*
X177859Y84288D01*
X178054Y84243D01*
X178264Y84213D01*
X178504Y84168D01*
X178744Y84153D01*
X179013Y84123D01*
X179298D01*
X180527D01*
X180542D01*
X180602D01*
X180677D01*
X180782Y84138D01*
X180917D01*
X181067Y84153D01*
X181232Y84168D01*
X181412Y84198D01*
X181801Y84258D01*
X182191Y84347D01*
X182581Y84482D01*
X182746Y84572D01*
X182911Y84662D01*
X182926D01*
X182941Y84692D01*
X183031Y84767D01*
X183166Y84887D01*
X183300Y85067D01*
X183450Y85292D01*
X183585Y85577D01*
X183675Y85891D01*
X183690Y86071D01*
X183705Y86266D01*
Y86341D01*
X183690Y86431D01*
Y86536D01*
X183675Y86671D01*
X183645Y86836D01*
X183615Y87001D01*
X183570Y87181D01*
X180512D01*
Y86311D01*
X180497Y86206D01*
X180452Y86101D01*
X180377Y85981D01*
X180348Y85966D01*
X180288Y85922D01*
X180168Y85877D01*
X180033Y85861D01*
X179673D01*
X179658D01*
X179628D01*
X179538Y85877D01*
X179418Y85906D01*
X179313Y85981D01*
X179298Y86011D01*
X179238Y86071D01*
X179193Y86191D01*
X179178Y86341D01*
Y88185D01*
X179193Y88275D01*
X179238Y88380D01*
X179313Y88485D01*
X179328Y88500D01*
X179403Y88560D01*
X179508Y88605D01*
X179658Y88620D01*
X184080D01*
X184095D01*
X184140D01*
X184200Y88605D01*
D02*
G37*
G36*
X184425Y80870D02*
X184530Y80825D01*
X184635Y80750D01*
X184650Y80720D01*
X184695Y80660D01*
X184755Y80555D01*
X184770Y80405D01*
Y74979D01*
X184755Y74889D01*
X184710Y74769D01*
X184635Y74664D01*
X184605Y74649D01*
X184545Y74604D01*
X184440Y74544D01*
X184305Y74529D01*
X183885D01*
X183870D01*
X183840D01*
X183795D01*
X183735D01*
X183645Y74544D01*
X183555D01*
X183331Y74559D01*
X183076Y74589D01*
X182791Y74649D01*
X182491Y74709D01*
X182206Y74799D01*
X182191D01*
X182176Y74814D01*
X182131Y74829D01*
X182071Y74859D01*
X181936Y74919D01*
X181757Y75009D01*
X181547Y75129D01*
X181337Y75264D01*
X181112Y75428D01*
X180917Y75608D01*
X177649Y78876D01*
X177634Y78891D01*
X177559Y78951D01*
X177454Y79026D01*
X177304Y79116D01*
X177095Y79221D01*
X176855Y79311D01*
X176570Y79386D01*
X176240Y79431D01*
Y75398D01*
X176225Y75309D01*
X176180Y75189D01*
X176105Y75084D01*
X176075Y75069D01*
X176000Y75024D01*
X175896Y74964D01*
X175761Y74949D01*
X175401D01*
X175386D01*
X175356D01*
X175266Y74964D01*
X175161Y75009D01*
X175056Y75084D01*
X175041Y75114D01*
X174981Y75174D01*
X174936Y75294D01*
X174921Y75428D01*
Y80450D01*
X174936Y80540D01*
X174981Y80645D01*
X175056Y80750D01*
X175071Y80765D01*
X175146Y80825D01*
X175251Y80870D01*
X175401Y80885D01*
X175805D01*
X175821D01*
X175836D01*
X175881D01*
X175940D01*
X176090Y80870D01*
X176285Y80855D01*
X176510Y80810D01*
X176765Y80765D01*
X177035Y80690D01*
X177304Y80600D01*
X177320D01*
X177334Y80585D01*
X177425Y80555D01*
X177559Y80480D01*
X177724Y80405D01*
X177904Y80285D01*
X178114Y80150D01*
X178309Y79985D01*
X178504Y79805D01*
X181772Y76553D01*
X181787Y76538D01*
X181861Y76478D01*
X181981Y76388D01*
X182161Y76298D01*
X182386Y76193D01*
X182536Y76148D01*
X182686Y76103D01*
X182851Y76058D01*
X183031Y76028D01*
X183241Y75998D01*
X183450Y75983D01*
Y80435D01*
X183465Y80525D01*
X183510Y80645D01*
X183585Y80750D01*
X183615Y80765D01*
X183675Y80825D01*
X183780Y80870D01*
X183930Y80885D01*
X184305D01*
X184320D01*
X184335D01*
X184425Y80870D01*
D02*
G37*
G36*
X184305Y72775D02*
X184365Y72760D01*
X184440Y72715D01*
X184500Y72670D01*
X184575Y72595D01*
X184620Y72505D01*
Y72490D01*
X184635Y72460D01*
X184665Y72416D01*
X184680Y72341D01*
X184710Y72251D01*
X184755Y72146D01*
X184829Y71891D01*
X184905Y71606D01*
X184979Y71276D01*
X185024Y70916D01*
X185039Y70557D01*
Y70482D01*
X185024Y70392D01*
Y70272D01*
X185009Y70137D01*
X184979Y69972D01*
X184934Y69777D01*
X184889Y69582D01*
X184829Y69372D01*
X184755Y69148D01*
X184650Y68938D01*
X184545Y68713D01*
X184410Y68488D01*
X184245Y68278D01*
X184065Y68083D01*
X183855Y67888D01*
X183840Y67874D01*
X183795Y67844D01*
X183735Y67799D01*
X183630Y67739D01*
X183510Y67664D01*
X183361Y67589D01*
X183196Y67499D01*
X183001Y67409D01*
X182776Y67319D01*
X182521Y67229D01*
X182251Y67154D01*
X181951Y67079D01*
X181637Y67019D01*
X181292Y66974D01*
X180917Y66944D01*
X180527Y66929D01*
X179298D01*
X179268D01*
X179208D01*
X179088D01*
X178953Y66944D01*
X178774Y66959D01*
X178564Y66974D01*
X178339Y67004D01*
X178084Y67049D01*
X177559Y67169D01*
X177275Y67244D01*
X177005Y67334D01*
X176735Y67439D01*
X176465Y67574D01*
X176210Y67724D01*
X175985Y67888D01*
X175970Y67904D01*
X175940Y67933D01*
X175881Y67993D01*
X175791Y68068D01*
X175701Y68158D01*
X175611Y68278D01*
X175491Y68428D01*
X175386Y68578D01*
X175281Y68758D01*
X175161Y68968D01*
X175071Y69178D01*
X174966Y69418D01*
X174891Y69672D01*
X174831Y69957D01*
X174801Y70242D01*
X174786Y70557D01*
Y70722D01*
X174801Y70811D01*
Y70916D01*
X174831Y71171D01*
X174891Y71456D01*
X174966Y71786D01*
X175071Y72146D01*
X175206Y72505D01*
Y72520D01*
X175236Y72550D01*
X175296Y72655D01*
X175356Y72700D01*
X175431Y72745D01*
X175521Y72775D01*
X175626Y72790D01*
X175641D01*
X175686D01*
X175746Y72775D01*
X175836Y72745D01*
X176165Y72610D01*
X176180D01*
X176210Y72580D01*
X176315Y72520D01*
X176420Y72386D01*
X176450Y72311D01*
X176465Y72206D01*
Y72146D01*
X176450Y72086D01*
X176435Y72011D01*
Y71996D01*
X176420Y71981D01*
X176405Y71921D01*
X176390Y71861D01*
X176330Y71711D01*
X176270Y71501D01*
X176225Y71276D01*
X176165Y71021D01*
X176135Y70767D01*
X176120Y70527D01*
Y70422D01*
X176135Y70362D01*
X176150Y70272D01*
X176165Y70167D01*
X176225Y69927D01*
X176315Y69672D01*
X176465Y69402D01*
X176555Y69283D01*
X176660Y69148D01*
X176780Y69028D01*
X176930Y68923D01*
X176945D01*
X176960Y68893D01*
X177020Y68878D01*
X177080Y68833D01*
X177170Y68803D01*
X177275Y68758D01*
X177394Y68698D01*
X177529Y68653D01*
X177694Y68608D01*
X177859Y68548D01*
X178054Y68503D01*
X178264Y68473D01*
X178504Y68428D01*
X178744Y68413D01*
X179013Y68383D01*
X179298D01*
X180527D01*
X180542D01*
X180602D01*
X180677D01*
X180782Y68398D01*
X180917D01*
X181067Y68413D01*
X181232Y68428D01*
X181412Y68458D01*
X181801Y68518D01*
X182191Y68608D01*
X182581Y68743D01*
X182746Y68833D01*
X182911Y68923D01*
X182926D01*
X182941Y68953D01*
X183031Y69028D01*
X183166Y69148D01*
X183300Y69327D01*
X183450Y69552D01*
X183585Y69837D01*
X183675Y70152D01*
X183690Y70332D01*
X183705Y70527D01*
Y70647D01*
X183690Y70782D01*
X183660Y70947D01*
X183630Y71171D01*
X183585Y71426D01*
X183510Y71696D01*
X183405Y71996D01*
X183390Y72011D01*
X183376Y72056D01*
X183361Y72131D01*
Y72251D01*
X183376Y72296D01*
X183405Y72370D01*
X183435Y72430D01*
X183495Y72490D01*
X183570Y72565D01*
X183675Y72610D01*
X183990Y72745D01*
X184005Y72760D01*
X184065Y72775D01*
X184140Y72790D01*
X184215D01*
X184230D01*
X184260D01*
X184305Y72775D01*
D02*
G37*
G36*
X185133Y61150D02*
X185238Y61105D01*
X185343Y61029D01*
X185357Y61000D01*
X185417Y60940D01*
X185462Y60835D01*
X185477Y60685D01*
X185343Y54599D01*
Y54584D01*
Y54569D01*
X185327Y54479D01*
X185283Y54359D01*
X185193Y54254D01*
X185163Y54239D01*
X185103Y54194D01*
X184998Y54134D01*
X184848Y54119D01*
X184368D01*
X184278Y54134D01*
X184158Y54179D01*
X184053Y54254D01*
X184038Y54284D01*
X183993Y54344D01*
X183933Y54464D01*
X183918Y54599D01*
X183768Y60685D01*
Y60700D01*
Y60715D01*
X183783Y60805D01*
X183828Y60925D01*
X183903Y61029D01*
X183933Y61045D01*
X183993Y61105D01*
X184113Y61150D01*
X184248Y61164D01*
X185043D01*
X185133Y61150D01*
D02*
G37*
G36*
X180186D02*
X180291Y61105D01*
X180396Y61029D01*
X180411Y61014D01*
X180471Y60940D01*
X180516Y60835D01*
X180531Y60685D01*
Y60325D01*
Y60310D01*
Y60295D01*
X180516Y60205D01*
X180471Y60100D01*
X180396Y59980D01*
X180366Y59965D01*
X180306Y59920D01*
X180201Y59860D01*
X180066Y59845D01*
X177473Y59845D01*
Y51781D01*
Y51766D01*
Y51751D01*
X177458Y51661D01*
X177413Y51556D01*
X177338Y51451D01*
X177323Y51436D01*
X177248Y51391D01*
X177143Y51331D01*
X176993Y51316D01*
X176483D01*
X176393Y51331D01*
X176274Y51376D01*
X176169Y51451D01*
X176154Y51481D01*
X176109Y51541D01*
X176049Y51646D01*
X176034Y51781D01*
Y59845D01*
X173425D01*
X173336Y59860D01*
X173216Y59905D01*
X173111Y59980D01*
X173096Y60010D01*
X173051Y60085D01*
X172991Y60190D01*
X172976Y60325D01*
Y60685D01*
Y60700D01*
Y60715D01*
X172991Y60805D01*
X173036Y60925D01*
X173111Y61029D01*
X173141Y61045D01*
X173201Y61105D01*
X173320Y61150D01*
X173455Y61164D01*
X180096Y61164D01*
X180186Y61150D01*
D02*
G37*
G36*
X169123Y61284D02*
X169288Y61254D01*
X169468Y61209D01*
X169663Y61150D01*
X169858Y61059D01*
X170053Y60940D01*
X170068Y60925D01*
X170128Y60880D01*
X170218Y60805D01*
X170323Y60685D01*
X170427Y60550D01*
X170532Y60385D01*
X170622Y60190D01*
X170697Y59965D01*
X172721Y51871D01*
Y51856D01*
X172736Y51826D01*
Y51781D01*
Y51721D01*
Y51691D01*
X172721Y51616D01*
X172691Y51526D01*
X172616Y51421D01*
X172601Y51406D01*
X172541Y51376D01*
X172436Y51331D01*
X172301Y51316D01*
X171747D01*
X171672Y51331D01*
X171597Y51361D01*
X171507Y51421D01*
X171417Y51481D01*
X171342Y51586D01*
X171282Y51721D01*
X170637Y54314D01*
X167145D01*
X166485Y51721D01*
Y51706D01*
X166470Y51691D01*
X166440Y51616D01*
X166395Y51511D01*
X166305Y51421D01*
X166275Y51406D01*
X166215Y51376D01*
X166110Y51331D01*
X165960Y51316D01*
X165451D01*
X165361Y51331D01*
X165256Y51361D01*
X165151Y51421D01*
X165136Y51436D01*
X165091Y51511D01*
X165046Y51601D01*
X165031Y51736D01*
Y51751D01*
Y51781D01*
X165046Y51856D01*
X167070Y59980D01*
X167085Y60010D01*
X167100Y60085D01*
X167145Y60190D01*
X167220Y60325D01*
X167309Y60490D01*
X167414Y60640D01*
X167564Y60805D01*
X167729Y60940D01*
X167759Y60955D01*
X167819Y61000D01*
X167924Y61059D01*
X168059Y61120D01*
X168224Y61179D01*
X168419Y61239D01*
X168644Y61284D01*
X168883Y61299D01*
X169003D01*
X169123Y61284D01*
D02*
G37*
G36*
X159200Y61150D02*
X159305Y61105D01*
X159410Y61029D01*
X159425Y61014D01*
X159485Y60940D01*
X159530Y60835D01*
X159545Y60685D01*
Y52635D01*
X164357D01*
X164446Y52620D01*
X164551Y52575D01*
X164656Y52500D01*
X164671Y52470D01*
X164731Y52410D01*
X164776Y52305D01*
X164791Y52155D01*
Y51781D01*
Y51766D01*
Y51751D01*
X164776Y51661D01*
X164731Y51556D01*
X164656Y51451D01*
X164626Y51436D01*
X164566Y51391D01*
X164461Y51331D01*
X164327Y51316D01*
X158555D01*
X158465Y51331D01*
X158345Y51376D01*
X158240Y51451D01*
X158226Y51481D01*
X158181Y51541D01*
X158121Y51646D01*
X158106Y51781D01*
Y60685D01*
Y60700D01*
Y60715D01*
X158121Y60805D01*
X158166Y60925D01*
X158240Y61029D01*
X158271Y61045D01*
X158331Y61105D01*
X158450Y61150D01*
X158585Y61164D01*
X159110D01*
X159200Y61150D01*
D02*
G37*
G36*
X152784D02*
X152889D01*
X153114Y61120D01*
X153384Y61089D01*
X153669Y61029D01*
X153968Y60940D01*
X154253Y60835D01*
X154268D01*
X154283Y60820D01*
X154373Y60775D01*
X154508Y60700D01*
X154673Y60595D01*
X154868Y60460D01*
X155063Y60310D01*
X155243Y60130D01*
X155407Y59920D01*
X155422Y59890D01*
X155467Y59815D01*
X155542Y59695D01*
X155617Y59531D01*
X155692Y59336D01*
X155767Y59111D01*
X155812Y58856D01*
X155827Y58571D01*
Y58541D01*
Y58466D01*
X155812Y58346D01*
X155782Y58196D01*
X155752Y58017D01*
X155692Y57822D01*
X155617Y57612D01*
X155512Y57402D01*
X155497Y57372D01*
X155452Y57312D01*
X155377Y57207D01*
X155288Y57087D01*
X155153Y56952D01*
X154988Y56802D01*
X154808Y56667D01*
X154598Y56533D01*
X154613D01*
X154628Y56517D01*
X154673Y56502D01*
X154733Y56473D01*
X154883Y56383D01*
X155078Y56278D01*
X155288Y56143D01*
X155497Y55963D01*
X155707Y55768D01*
X155902Y55543D01*
X155917Y55513D01*
X155977Y55438D01*
X156052Y55303D01*
X156142Y55138D01*
X156217Y54929D01*
X156292Y54689D01*
X156352Y54419D01*
X156367Y54134D01*
Y54119D01*
Y54104D01*
Y54059D01*
Y53999D01*
X156337Y53849D01*
X156307Y53654D01*
X156247Y53430D01*
X156172Y53190D01*
X156052Y52950D01*
X155902Y52695D01*
X155887Y52665D01*
X155827Y52590D01*
X155722Y52470D01*
X155572Y52320D01*
X155392Y52170D01*
X155183Y51991D01*
X154928Y51826D01*
X154643Y51676D01*
X154628D01*
X154613Y51661D01*
X154568Y51646D01*
X154508Y51616D01*
X154418Y51586D01*
X154328Y51556D01*
X154118Y51496D01*
X153849Y51436D01*
X153534Y51376D01*
X153189Y51331D01*
X152829Y51316D01*
X150910D01*
X150821Y51331D01*
X150701Y51361D01*
X150596Y51436D01*
X150581Y51466D01*
X150536Y51526D01*
X150491Y51646D01*
X150476Y51781D01*
Y59845D01*
X150056D01*
X149951Y59860D01*
X149846Y59905D01*
X149726Y59980D01*
X149711Y60010D01*
X149666Y60070D01*
X149621Y60190D01*
X149606Y60325D01*
Y60685D01*
Y60700D01*
Y60730D01*
X149621Y60820D01*
X149651Y60925D01*
X149726Y61029D01*
X149756Y61045D01*
X149816Y61105D01*
X149936Y61150D01*
X150086Y61164D01*
X152709D01*
X152784Y61150D01*
D02*
G37*
G36*
X184998Y52755D02*
X185103Y52710D01*
X185207Y52635D01*
X185222Y52605D01*
X185283Y52545D01*
X185327Y52440D01*
X185343Y52290D01*
Y51646D01*
Y51631D01*
Y51616D01*
X185327Y51526D01*
X185283Y51421D01*
X185207Y51316D01*
X185193Y51301D01*
X185118Y51256D01*
X185013Y51196D01*
X184863Y51181D01*
X184353D01*
X184263Y51196D01*
X184143Y51241D01*
X184038Y51316D01*
X184023Y51346D01*
X183978Y51406D01*
X183918Y51511D01*
X183903Y51646D01*
Y52290D01*
Y52305D01*
Y52320D01*
X183918Y52410D01*
X183963Y52530D01*
X184038Y52635D01*
X184068Y52650D01*
X184128Y52710D01*
X184248Y52755D01*
X184383Y52770D01*
X184908D01*
X184998Y52755D01*
D02*
G37*
%LPC*%
G36*
X168883Y59980D02*
X168853D01*
X168793Y59965D01*
X168719Y59950D01*
X168629Y59905D01*
X168614Y59890D01*
X168569Y59860D01*
X168524Y59800D01*
X168494Y59725D01*
X167474Y55633D01*
X170308D01*
X169288Y59725D01*
Y59740D01*
X169258Y59785D01*
X169213Y59845D01*
X169153Y59905D01*
X169138Y59920D01*
X169078Y59950D01*
X168988Y59965D01*
X168883Y59980D01*
D02*
G37*
G36*
X152544Y59845D02*
X151900D01*
Y57102D01*
X152694D01*
X152859Y57117D01*
X153069Y57147D01*
X153294Y57192D01*
X153534Y57252D01*
X153773Y57342D01*
X153983Y57462D01*
X154013Y57477D01*
X154073Y57537D01*
X154148Y57612D01*
X154253Y57732D01*
X154358Y57867D01*
X154433Y58031D01*
X154493Y58226D01*
X154523Y58436D01*
Y58466D01*
X154508Y58541D01*
X154493Y58661D01*
X154463Y58796D01*
X154388Y58961D01*
X154298Y59126D01*
X154163Y59306D01*
X153983Y59456D01*
X153953Y59471D01*
X153878Y59516D01*
X153759Y59575D01*
X153609Y59650D01*
X153399Y59725D01*
X153144Y59785D01*
X152859Y59830D01*
X152544Y59845D01*
D02*
G37*
G36*
X152829Y55768D02*
X151900D01*
Y52635D01*
X152994D01*
X153069Y52650D01*
X153174Y52665D01*
X153399Y52695D01*
X153639Y52740D01*
X153908Y52815D01*
X154178Y52920D01*
X154418Y53070D01*
X154448Y53085D01*
X154523Y53145D01*
X154613Y53250D01*
X154733Y53385D01*
X154853Y53549D01*
X154943Y53729D01*
X155018Y53954D01*
X155048Y54194D01*
Y54209D01*
Y54224D01*
X155033Y54314D01*
X155018Y54434D01*
X154973Y54599D01*
X154898Y54779D01*
X154778Y54959D01*
X154628Y55138D01*
X154418Y55318D01*
X154388Y55333D01*
X154313Y55393D01*
X154178Y55468D01*
X153983Y55543D01*
X153759Y55633D01*
X153489Y55693D01*
X153174Y55753D01*
X152829Y55768D01*
D02*
G37*
%LPD*%
D10*
X69390Y38386D02*
X68652Y38812D01*
Y37960D01*
X69390Y38386D01*
X112697D02*
X111959Y38812D01*
Y37960D01*
X112697Y38386D01*
X156004D02*
X155266Y38812D01*
Y37960D01*
X156004Y38386D01*
X158957Y124016D02*
X158219Y124442D01*
Y123590D01*
X158957Y124016D01*
X75787Y96752D02*
X75049Y97178D01*
Y96326D01*
X75787Y96752D01*
X42815Y984D02*
X42077Y1410D01*
Y558D01*
X42815Y984D01*
X121161Y105551D02*
X120423Y105977D01*
Y105125D01*
X121161Y105551D01*
X96949Y119095D02*
X96211Y119521D01*
Y118668D01*
X96949Y119095D01*
D11*
X54134Y101378D02*
X55118Y100394D01*
X51181Y119095D02*
Y138779D01*
X62992D01*
Y121063D02*
Y138779D01*
Y100394D02*
Y121063D01*
X55118Y100394D02*
X62992D01*
X155496Y79740D02*
X151560D01*
Y81708D01*
X152216Y82364D01*
X153528D01*
X154184Y81708D01*
Y79740D01*
Y81052D02*
X155496Y82364D01*
Y83676D02*
Y84988D01*
Y84332D01*
X151560D01*
X152216Y83676D01*
X114157Y89583D02*
X110222D01*
Y91550D01*
X110878Y92207D01*
X112190D01*
X112846Y91550D01*
Y89583D01*
Y90895D02*
X114157Y92207D01*
X110222Y96142D02*
X110878Y94830D01*
X112190Y93518D01*
X113502D01*
X114157Y94174D01*
Y95486D01*
X113502Y96142D01*
X112846D01*
X112190Y95486D01*
Y93518D01*
X120063Y89583D02*
X116127D01*
Y91551D01*
X116783Y92207D01*
X118095D01*
X118751Y91551D01*
Y89583D01*
Y90895D02*
X120063Y92207D01*
X116127Y93518D02*
Y96142D01*
X116783D01*
X119407Y93518D01*
X120063D01*
X155496Y108283D02*
X151560D01*
Y110251D01*
X152216Y110907D01*
X153528D01*
X154184Y110251D01*
Y108283D01*
Y109595D02*
X155496Y110907D01*
Y114843D02*
Y112219D01*
X152872Y114843D01*
X152216D01*
X151560Y114187D01*
Y112875D01*
X152216Y112219D01*
X55134Y116624D02*
Y120560D01*
X57102D01*
X57758Y119904D01*
Y118592D01*
X57102Y117936D01*
X55134D01*
X56446D02*
X57758Y116624D01*
X59070Y119904D02*
X59726Y120560D01*
X61037D01*
X61693Y119904D01*
Y119248D01*
X61037Y118592D01*
X60382D01*
X61037D01*
X61693Y117936D01*
Y117280D01*
X61037Y116624D01*
X59726D01*
X59070Y117280D01*
X55134Y109501D02*
Y113437D01*
X57102D01*
X57758Y112781D01*
Y111469D01*
X57102Y110813D01*
X55134D01*
X56446D02*
X57758Y109501D01*
X61037D02*
Y113437D01*
X59070Y111469D01*
X61693D01*
X55134Y102378D02*
Y106314D01*
X57102D01*
X57758Y105658D01*
Y104346D01*
X57102Y103690D01*
X55134D01*
X56446D02*
X57758Y102378D01*
X61693Y106314D02*
X59070D01*
Y104346D01*
X60382Y105002D01*
X61037D01*
X61693Y104346D01*
Y103034D01*
X61037Y102378D01*
X59726D01*
X59070Y103034D01*
X71024Y45680D02*
X70368Y46336D01*
X69056D01*
X68400Y45680D01*
Y45024D01*
X69056Y44368D01*
X70368D01*
X71024Y43712D01*
Y43056D01*
X70368Y42400D01*
X69056D01*
X68400Y43056D01*
X74960Y46336D02*
X72336D01*
Y42400D01*
X74960D01*
X72336Y44368D02*
X73648D01*
X76271Y42400D02*
Y46336D01*
X78895Y42400D01*
Y46336D01*
X82831Y45680D02*
X82175Y46336D01*
X80863D01*
X80207Y45680D01*
Y45024D01*
X80863Y44368D01*
X82175D01*
X82831Y43712D01*
Y43056D01*
X82175Y42400D01*
X80863D01*
X80207Y43056D01*
X86767Y46336D02*
X84143D01*
Y42400D01*
X86767D01*
X84143Y44368D02*
X85455D01*
X107700Y42400D02*
Y46336D01*
X109668D01*
X110324Y45680D01*
Y44368D01*
X109668Y43712D01*
X107700D01*
X111636Y46336D02*
Y42400D01*
X112948Y43712D01*
X114260Y42400D01*
Y46336D01*
X115571Y42400D02*
Y46336D01*
X117539D01*
X118195Y45680D01*
Y44368D01*
X117539Y43712D01*
X115571D01*
X116883D02*
X118195Y42400D01*
X125411Y46336D02*
X124099D01*
X123443Y45680D01*
Y43056D01*
X124099Y42400D01*
X125411D01*
X126067Y43056D01*
Y45680D01*
X125411Y46336D01*
X127379D02*
Y43056D01*
X128035Y42400D01*
X129347D01*
X130002Y43056D01*
Y46336D01*
X131314D02*
X133938D01*
X132626D01*
Y42400D01*
X155924Y45680D02*
X155268Y46336D01*
X153956D01*
X153300Y45680D01*
Y45024D01*
X153956Y44368D01*
X155268D01*
X155924Y43712D01*
Y43056D01*
X155268Y42400D01*
X153956D01*
X153300Y43056D01*
X157236Y46336D02*
Y42400D01*
X158548Y43712D01*
X159860Y42400D01*
Y46336D01*
X161171D02*
X162483D01*
X161827D01*
Y42400D01*
X161171D01*
X162483D01*
X164451Y46336D02*
X167075D01*
X165763D01*
Y42400D01*
X171011Y45680D02*
X170355Y46336D01*
X169043D01*
X168387Y45680D01*
Y43056D01*
X169043Y42400D01*
X170355D01*
X171011Y43056D01*
X172323Y46336D02*
Y42400D01*
Y44368D01*
X174947D01*
Y46336D01*
Y42400D01*
X84975Y106299D02*
Y103019D01*
X85631Y102363D01*
X86942D01*
X87598Y103019D01*
Y106299D01*
X88910Y102363D02*
X90222D01*
X89566D01*
Y106299D01*
X88910Y105643D01*
X2800Y127374D02*
Y121376D01*
Y123376D01*
X6799Y127374D01*
X3800Y124375D01*
X6799Y121376D01*
X8798D02*
X10797D01*
X9798D01*
Y127374D01*
X8798Y126375D01*
X15200Y149900D02*
X17199D01*
X16200D01*
Y155898D01*
X15200Y154898D01*
X24197Y149900D02*
X20198D01*
X24197Y153899D01*
Y154898D01*
X23197Y155898D01*
X21198D01*
X20198Y154898D01*
X131900Y69736D02*
Y66456D01*
X132556Y65800D01*
X133868D01*
X134524Y66456D01*
Y69736D01*
X135836Y65800D02*
X137148D01*
X136492D01*
Y69736D01*
X135836Y69080D01*
X82500Y111200D02*
Y115136D01*
X84468D01*
X85124Y114480D01*
Y113168D01*
X84468Y112512D01*
X82500D01*
X86436Y115136D02*
Y111200D01*
X87748Y112512D01*
X89060Y111200D01*
Y115136D01*
X90372Y111200D02*
Y115136D01*
X92339D01*
X92995Y114480D01*
Y113168D01*
X92339Y112512D01*
X90372D01*
X91683D02*
X92995Y111200D01*
X101424Y108980D02*
X100768Y109636D01*
X99456D01*
X98800Y108980D01*
Y106356D01*
X99456Y105700D01*
X100768D01*
X101424Y106356D01*
X102736Y105700D02*
X104048D01*
X103392D01*
Y109636D01*
X102736Y108980D01*
X81300Y55100D02*
Y59036D01*
X83268D01*
X83924Y58380D01*
Y57068D01*
X83268Y56412D01*
X81300D01*
X87860Y55100D02*
X85236D01*
X87860Y57724D01*
Y58380D01*
X87204Y59036D01*
X85892D01*
X85236Y58380D01*
X41299Y155898D02*
X39300D01*
X38300Y154898D01*
Y150900D01*
X39300Y149900D01*
X41299D01*
X42299Y150900D01*
Y154898D01*
X41299Y155898D01*
X44298Y149900D02*
Y155898D01*
X47297D01*
X48297Y154898D01*
Y152899D01*
X47297Y151899D01*
X44298D01*
X33499Y155898D02*
X29500D01*
Y152899D01*
X31499Y153899D01*
X32499D01*
X33499Y152899D01*
Y150900D01*
X32499Y149900D01*
X30500D01*
X29500Y150900D01*
X98100Y71800D02*
Y75736D01*
X100068D01*
X100724Y75080D01*
Y73768D01*
X100068Y73112D01*
X98100D01*
X99412D02*
X100724Y71800D01*
X102036Y75080D02*
X102692Y75736D01*
X104004D01*
X104660Y75080D01*
Y74424D01*
X104004Y73768D01*
X104660Y73112D01*
Y72456D01*
X104004Y71800D01*
X102692D01*
X102036Y72456D01*
Y73112D01*
X102692Y73768D01*
X102036Y74424D01*
Y75080D01*
X102692Y73768D02*
X104004D01*
X72500Y112500D02*
Y116436D01*
X74468D01*
X75124Y115780D01*
Y114468D01*
X74468Y113812D01*
X72500D01*
X73812D02*
X75124Y112500D01*
D12*
X56299Y125394D02*
X57874D01*
X56299Y122638D02*
X57874D01*
X56299Y131299D02*
X57874D01*
X56299Y128543D02*
X57874D01*
X56299Y137205D02*
X57874D01*
X56299Y134449D02*
X57874D01*
X56693Y3543D02*
Y35827D01*
X98425D01*
Y3543D02*
Y35827D01*
X56693Y3543D02*
X98425D01*
X100000D02*
Y35827D01*
X141732D01*
Y3543D02*
Y35827D01*
X100000Y3543D02*
X141732D01*
X143307D02*
Y35827D01*
X185039D01*
Y3543D02*
Y35827D01*
X143307Y3543D02*
X185039D01*
X161024Y111811D02*
X193307D01*
X161024D02*
Y153543D01*
X193307D01*
Y111811D02*
Y153543D01*
X152165Y101575D02*
Y103150D01*
X154921Y101575D02*
Y103150D01*
X152165Y89764D02*
Y91339D01*
X154921Y89764D02*
Y91339D01*
X77854Y94587D02*
Y97342D01*
X80610D01*
X77854Y79823D02*
Y82579D01*
Y79823D02*
X80610D01*
X95374D02*
Y82579D01*
X92618Y79823D02*
X95374D01*
Y94587D02*
Y97342D01*
X92618D02*
X95374D01*
X2559Y3445D02*
X52559D01*
Y117618D01*
X2559D02*
X52559D01*
X2559Y3445D02*
Y117618D01*
X15157Y137795D02*
Y144488D01*
X22638Y146457D02*
X24213Y144488D01*
X15157D02*
X16732Y146457D01*
X24213Y137795D02*
Y144488D01*
X16732Y146457D02*
X22638D01*
X15157Y122441D02*
X24213D01*
X15157D02*
Y129921D01*
X24213Y122441D02*
Y129921D01*
X132366Y73524D02*
Y107579D01*
Y73524D02*
X139287D01*
Y107579D01*
X132366D02*
X139287D01*
X57992Y53740D02*
X67992D01*
X57992D02*
Y93740D01*
X67992Y53740D02*
Y93740D01*
X57992D02*
X67992D01*
X108661Y121653D02*
Y153937D01*
X66929Y121653D02*
X108661D01*
X66929D02*
Y153937D01*
X108661D01*
X104760Y94198D02*
Y101088D01*
X98055Y94177D02*
Y101067D01*
X91299Y52087D02*
Y62087D01*
X141299D01*
X91299Y52087D02*
X141299D01*
Y62087D01*
X113583Y101575D02*
Y103150D01*
X110827Y101575D02*
Y103150D01*
X38780Y137795D02*
Y144488D01*
X46260Y146457D02*
X47835Y144488D01*
X38780D02*
X40354Y146457D01*
X47835Y137795D02*
Y144488D01*
X40354Y146457D02*
X46260D01*
X38780Y122441D02*
X47835D01*
X38780D02*
Y129921D01*
X47835Y122441D02*
Y129921D01*
X26969Y137795D02*
Y144488D01*
X34449Y146457D02*
X36024Y144488D01*
X26969D02*
X28543Y146457D01*
X36024Y137795D02*
Y144488D01*
X28543Y146457D02*
X34449D01*
X26969Y122441D02*
X36024D01*
X26969D02*
Y129921D01*
X36024Y122441D02*
Y129921D01*
X116732Y101575D02*
Y103150D01*
X119488Y101575D02*
Y103150D01*
X128701Y150827D02*
X148701D01*
X128701Y120827D02*
X148701D01*
X128701D02*
Y150827D01*
X148701Y120827D02*
Y150827D01*
Y131660D02*
Y150827D01*
X102756Y82874D02*
Y84449D01*
X100000Y82874D02*
Y84449D01*
D13*
X130702Y155159D02*
X131535Y153493D01*
X133202Y151827D01*
X134868D01*
X135701Y152660D01*
Y154326D01*
X134868Y155159D01*
X134035D01*
X133202Y154326D01*
Y151827D01*
X140702Y155159D02*
Y151827D01*
X143202D01*
X142368Y153493D01*
Y154326D01*
X143202Y155159D01*
X144868D01*
X145701Y154326D01*
Y152660D01*
X144868Y151827D01*
X135701Y119159D02*
Y115827D01*
X132369Y119159D01*
X131535D01*
X130702Y118326D01*
Y116660D01*
X131535Y115827D01*
X145701Y117827D02*
Y119493D01*
Y118660D01*
X140702D01*
X141535Y117827D01*
M02*
