G04*
G04 #@! TF.GenerationSoftware,Altium Limited,Altium Designer,21.6.1 (37)*
G04*
G04 Layer_Color=16711935*
%FSLAX25Y25*%
%MOIN*%
G70*
G04*
G04 #@! TF.SameCoordinates,35447041-0B5E-4321-A350-582B76B9CE47*
G04*
G04*
G04 #@! TF.FilePolarity,Positive*
G04*
G01*
G75*
%ADD11C,0.01000*%
%ADD51C,0.00394*%
D11*
X196850Y152480D02*
X196754Y153456D01*
X196470Y154394D01*
X196008Y155258D01*
X195386Y156016D01*
X194628Y156638D01*
X193764Y157100D01*
X192826Y157384D01*
X191850Y157480D01*
Y0D02*
X192826Y96D01*
X193764Y381D01*
X194628Y843D01*
X195386Y1464D01*
X196008Y2222D01*
X196470Y3087D01*
X196754Y4025D01*
X196850Y5000D01*
X0D02*
X96Y4025D01*
X381Y3087D01*
X843Y2222D01*
X1464Y1464D01*
X2222Y843D01*
X3087Y381D01*
X4025Y96D01*
X5000Y0D01*
Y157480D02*
X4025Y157384D01*
X3087Y157100D01*
X2222Y156638D01*
X1464Y156016D01*
X843Y155258D01*
X381Y154394D01*
X96Y153456D01*
X0Y152480D01*
X152480Y157480D02*
X191850D01*
X196850Y5000D02*
Y152480D01*
X152480Y0D02*
X191850D01*
X5000D02*
X152480D01*
X5000Y157480D02*
X152480D01*
X0Y5000D02*
Y152480D01*
D51*
X18898Y133858D02*
X20472D01*
X19685Y133071D02*
Y134646D01*
X42520Y133858D02*
X44094D01*
X43307Y133071D02*
Y134646D01*
X30709Y133858D02*
X32284D01*
X31496Y133071D02*
Y134646D01*
M02*
