G04*
G04 #@! TF.GenerationSoftware,Altium Limited,Altium Designer,21.6.1 (37)*
G04*
G04 Layer_Color=16711935*
%FSLAX25Y25*%
%MOIN*%
G70*
G04*
G04 #@! TF.SameCoordinates,35447041-0B5E-4321-A350-582B76B9CE47*
G04*
G04*
G04 #@! TF.FilePolarity,Positive*
G04*
G01*
G75*
%ADD51C,0.00394*%
D51*
X83957Y93209D02*
X83693Y94193D01*
X82972Y94913D01*
X81988Y95177D01*
X81004Y94913D01*
X80283Y94193D01*
X80020Y93209D01*
X80283Y92224D01*
X81004Y91504D01*
X81988Y91240D01*
X82972Y91504D01*
X83693Y92224D01*
X83957Y93209D01*
X53740Y122146D02*
Y125886D01*
X60433Y122146D02*
Y125886D01*
X53740D02*
X60433D01*
X53740Y122146D02*
X60433D01*
X53740Y128051D02*
Y131791D01*
X60433Y128051D02*
Y131791D01*
X53740D02*
X60433D01*
X53740Y128051D02*
X60433D01*
X53740Y133957D02*
Y137697D01*
X60433Y133957D02*
Y137697D01*
X53740D02*
X60433D01*
X53740Y133957D02*
X60433D01*
X59055Y35827D02*
X98425D01*
Y3543D02*
Y35827D01*
X59055Y3543D02*
X98425D01*
X59055D02*
Y35827D01*
X102362D02*
X141732D01*
Y3543D02*
Y35827D01*
X102362Y3543D02*
X141732D01*
X102362D02*
Y35827D01*
X145669D02*
X185039D01*
Y3543D02*
Y35827D01*
X145669Y3543D02*
X185039D01*
X145669D02*
Y35827D01*
X161024Y114173D02*
Y153543D01*
X193307D01*
Y114173D02*
Y153543D01*
X161024Y114173D02*
X193307D01*
X151673Y99016D02*
X155413D01*
X151673Y105709D02*
X155413D01*
X151673Y99016D02*
Y105709D01*
X155413Y99016D02*
Y105709D01*
X151673Y87205D02*
X155413D01*
X151673Y93898D02*
X155413D01*
X151673Y87205D02*
Y93898D01*
X155413Y87205D02*
Y93898D01*
X78445Y80413D02*
X94784D01*
X78445Y96752D02*
X94784D01*
Y80413D02*
Y96752D01*
X78445Y80413D02*
Y96752D01*
X66929Y121653D02*
X106299D01*
X66929D02*
Y153937D01*
X106299D01*
Y121653D02*
Y153937D01*
X110335Y105709D02*
X114075D01*
X110335Y99016D02*
X114075D01*
Y105709D01*
X110335Y99016D02*
Y105709D01*
X116240Y99016D02*
X119980D01*
X116240Y105709D02*
X119980D01*
X116240Y99016D02*
Y105709D01*
X119980Y99016D02*
Y105709D01*
X99508Y87008D02*
X103248D01*
X99508Y80315D02*
X103248D01*
Y87008D01*
X99508Y80315D02*
Y87008D01*
X71949Y101083D02*
X75689D01*
X71949Y107579D02*
X75689D01*
X71949Y101083D02*
Y107579D01*
X75689Y101083D02*
Y107579D01*
M02*
