G04*
G04 #@! TF.GenerationSoftware,Altium Limited,Altium Designer,21.6.1 (37)*
G04*
G04 Layer_Color=8388736*
%FSLAX25Y25*%
%MOIN*%
G70*
G04*
G04 #@! TF.SameCoordinates,35447041-0B5E-4321-A350-582B76B9CE47*
G04*
G04*
G04 #@! TF.FilePolarity,Positive*
G04*
G01*
G75*
%ADD12C,0.00787*%
G36*
X27559Y63617D02*
X25596D01*
X25599Y63613D01*
X25614Y63598D01*
X25633Y63572D01*
X25663Y63538D01*
X25693Y63497D01*
X25730Y63445D01*
X25768Y63385D01*
X25809Y63322D01*
Y63318D01*
X25813Y63314D01*
X25828Y63292D01*
X25846Y63258D01*
X25869Y63213D01*
X25895Y63164D01*
X25917Y63112D01*
X25943Y63056D01*
X25966Y63000D01*
X25667D01*
Y63004D01*
X25663Y63011D01*
X25655Y63026D01*
X25644Y63045D01*
X25633Y63067D01*
X25618Y63093D01*
X25584Y63153D01*
X25543Y63224D01*
X25495Y63299D01*
X25438Y63374D01*
X25375Y63449D01*
X25371Y63452D01*
X25367Y63456D01*
X25345Y63482D01*
X25311Y63516D01*
X25267Y63557D01*
X25214Y63602D01*
X25158Y63647D01*
X25098Y63692D01*
X25035Y63725D01*
Y63927D01*
X27559D01*
Y63617D01*
D02*
G37*
G36*
Y62170D02*
X26291Y61276D01*
X26688Y60864D01*
X27559D01*
Y60531D01*
X25042D01*
Y60864D01*
X26287D01*
X25042Y62113D01*
Y62566D01*
X26067Y61508D01*
X27559Y62611D01*
Y62170D01*
D02*
G37*
G36*
X137805Y91654D02*
Y91651D01*
Y91640D01*
Y91617D01*
Y91591D01*
X137801Y91561D01*
Y91523D01*
X137798Y91482D01*
X137794Y91438D01*
X137783Y91340D01*
X137768Y91243D01*
X137749Y91142D01*
X137719Y91052D01*
Y91049D01*
X137715Y91041D01*
X137712Y91030D01*
X137704Y91015D01*
X137682Y90974D01*
X137648Y90921D01*
X137607Y90865D01*
X137551Y90805D01*
X137487Y90746D01*
X137409Y90689D01*
X137405D01*
X137398Y90682D01*
X137386Y90678D01*
X137368Y90667D01*
X137345Y90656D01*
X137319Y90645D01*
X137289Y90633D01*
X137252Y90622D01*
X137211Y90607D01*
X137166Y90596D01*
X137117Y90585D01*
X137065Y90574D01*
X137012Y90562D01*
X136952Y90559D01*
X136822Y90551D01*
X136788D01*
X136762Y90555D01*
X136732D01*
X136698Y90559D01*
X136657Y90562D01*
X136616Y90566D01*
X136522Y90581D01*
X136429Y90604D01*
X136332Y90630D01*
X136242Y90671D01*
X136238D01*
X136231Y90678D01*
X136219Y90682D01*
X136205Y90693D01*
X136167Y90723D01*
X136118Y90761D01*
X136066Y90809D01*
X136010Y90873D01*
X135961Y90940D01*
X135920Y91022D01*
Y91026D01*
X135916Y91034D01*
X135913Y91045D01*
X135905Y91063D01*
X135898Y91090D01*
X135890Y91116D01*
X135883Y91149D01*
X135875Y91187D01*
X135864Y91232D01*
X135857Y91280D01*
X135849Y91329D01*
X135842Y91385D01*
X135834Y91449D01*
X135830Y91512D01*
X135827Y91583D01*
Y91654D01*
Y93109D01*
X136160D01*
Y91654D01*
Y91651D01*
Y91640D01*
Y91624D01*
Y91602D01*
X136163Y91576D01*
Y91542D01*
X136167Y91471D01*
X136174Y91393D01*
X136186Y91314D01*
X136201Y91239D01*
X136208Y91202D01*
X136219Y91172D01*
X136223Y91164D01*
X136231Y91146D01*
X136246Y91120D01*
X136268Y91082D01*
X136294Y91045D01*
X136332Y91004D01*
X136373Y90966D01*
X136425Y90933D01*
X136433Y90929D01*
X136451Y90921D01*
X136485Y90906D01*
X136526Y90891D01*
X136582Y90877D01*
X136642Y90861D01*
X136713Y90854D01*
X136792Y90850D01*
X136825D01*
X136852Y90854D01*
X136881D01*
X136915Y90858D01*
X136994Y90873D01*
X137080Y90891D01*
X137166Y90921D01*
X137248Y90962D01*
X137285Y90985D01*
X137315Y91015D01*
X137319Y91019D01*
X137323Y91022D01*
X137330Y91034D01*
X137341Y91049D01*
X137353Y91067D01*
X137364Y91093D01*
X137379Y91123D01*
X137394Y91157D01*
X137409Y91198D01*
X137424Y91247D01*
X137435Y91299D01*
X137446Y91355D01*
X137457Y91419D01*
X137465Y91494D01*
X137472Y91568D01*
Y91654D01*
Y93109D01*
X137805D01*
Y91654D01*
D02*
G37*
G36*
X139398Y90592D02*
X139088D01*
Y92556D01*
X139084Y92552D01*
X139069Y92537D01*
X139043Y92518D01*
X139009Y92488D01*
X138968Y92458D01*
X138916Y92421D01*
X138856Y92384D01*
X138793Y92343D01*
X138789D01*
X138785Y92339D01*
X138763Y92324D01*
X138729Y92305D01*
X138684Y92283D01*
X138636Y92257D01*
X138583Y92234D01*
X138527Y92208D01*
X138471Y92185D01*
Y92485D01*
X138475D01*
X138482Y92488D01*
X138497Y92496D01*
X138516Y92507D01*
X138538Y92518D01*
X138564Y92533D01*
X138624Y92567D01*
X138695Y92608D01*
X138770Y92657D01*
X138845Y92713D01*
X138920Y92776D01*
X138923Y92780D01*
X138927Y92784D01*
X138953Y92806D01*
X138987Y92840D01*
X139028Y92885D01*
X139073Y92937D01*
X139118Y92993D01*
X139163Y93053D01*
X139197Y93117D01*
X139398D01*
Y90592D01*
D02*
G37*
G36*
X101361Y100984D02*
X99397D01*
X99401Y100981D01*
X99416Y100966D01*
X99435Y100940D01*
X99464Y100906D01*
X99494Y100865D01*
X99532Y100812D01*
X99569Y100753D01*
X99610Y100689D01*
Y100685D01*
X99614Y100681D01*
X99629Y100659D01*
X99648Y100625D01*
X99670Y100581D01*
X99696Y100532D01*
X99719Y100479D01*
X99745Y100423D01*
X99768Y100367D01*
X99468D01*
Y100371D01*
X99464Y100379D01*
X99457Y100393D01*
X99446Y100412D01*
X99435Y100435D01*
X99420Y100461D01*
X99386Y100521D01*
X99345Y100592D01*
X99296Y100666D01*
X99240Y100741D01*
X99177Y100816D01*
X99173Y100820D01*
X99169Y100824D01*
X99147Y100850D01*
X99113Y100883D01*
X99068Y100925D01*
X99016Y100970D01*
X98960Y101014D01*
X98900Y101059D01*
X98836Y101093D01*
Y101295D01*
X101361D01*
Y100984D01*
D02*
G37*
G36*
X100583Y99844D02*
X100601Y99836D01*
X100631Y99829D01*
X100665Y99814D01*
X100706Y99799D01*
X100747Y99784D01*
X100796Y99761D01*
X100897Y99709D01*
X100998Y99646D01*
X101050Y99604D01*
X101099Y99563D01*
X101147Y99518D01*
X101189Y99470D01*
X101192Y99466D01*
X101196Y99458D01*
X101207Y99444D01*
X101222Y99421D01*
X101237Y99395D01*
X101256Y99361D01*
X101275Y99328D01*
X101293Y99283D01*
X101316Y99238D01*
X101335Y99186D01*
X101353Y99133D01*
X101368Y99073D01*
X101383Y99010D01*
X101394Y98946D01*
X101398Y98875D01*
X101402Y98804D01*
Y98767D01*
X101398Y98737D01*
Y98703D01*
X101394Y98662D01*
X101387Y98617D01*
X101379Y98568D01*
X101361Y98464D01*
X101331Y98352D01*
X101290Y98243D01*
X101267Y98191D01*
X101237Y98142D01*
X101233Y98138D01*
X101230Y98131D01*
X101219Y98120D01*
X101207Y98101D01*
X101189Y98079D01*
X101170Y98056D01*
X101114Y98000D01*
X101047Y97936D01*
X100964Y97869D01*
X100871Y97809D01*
X100759Y97753D01*
X100755D01*
X100744Y97749D01*
X100729Y97742D01*
X100703Y97734D01*
X100676Y97723D01*
X100639Y97712D01*
X100601Y97701D01*
X100557Y97689D01*
X100508Y97675D01*
X100456Y97663D01*
X100340Y97645D01*
X100216Y97630D01*
X100082Y97622D01*
X100078D01*
X100063D01*
X100044D01*
X100014Y97626D01*
X99981D01*
X99943Y97630D01*
X99898Y97633D01*
X99850Y97641D01*
X99741Y97660D01*
X99625Y97686D01*
X99509Y97723D01*
X99397Y97772D01*
X99393D01*
X99386Y97779D01*
X99371Y97787D01*
X99349Y97798D01*
X99326Y97817D01*
X99296Y97835D01*
X99233Y97880D01*
X99162Y97940D01*
X99087Y98015D01*
X99016Y98101D01*
X98952Y98198D01*
Y98202D01*
X98945Y98209D01*
X98937Y98224D01*
X98930Y98247D01*
X98915Y98273D01*
X98904Y98303D01*
X98889Y98340D01*
X98874Y98378D01*
X98862Y98422D01*
X98847Y98467D01*
X98821Y98572D01*
X98806Y98684D01*
X98799Y98808D01*
Y98845D01*
X98803Y98871D01*
X98806Y98905D01*
X98810Y98942D01*
X98814Y98984D01*
X98821Y99032D01*
X98847Y99129D01*
X98881Y99238D01*
X98904Y99290D01*
X98930Y99343D01*
X98960Y99395D01*
X98993Y99444D01*
X98997Y99447D01*
X99001Y99455D01*
X99012Y99470D01*
X99027Y99485D01*
X99049Y99507D01*
X99072Y99530D01*
X99102Y99556D01*
X99132Y99586D01*
X99169Y99616D01*
X99210Y99646D01*
X99251Y99675D01*
X99300Y99705D01*
X99352Y99735D01*
X99408Y99761D01*
X99468Y99784D01*
X99532Y99806D01*
X99610Y99477D01*
X99607D01*
X99599Y99474D01*
X99584Y99470D01*
X99566Y99462D01*
X99543Y99451D01*
X99517Y99440D01*
X99457Y99410D01*
X99393Y99376D01*
X99326Y99331D01*
X99263Y99279D01*
X99210Y99219D01*
X99207Y99212D01*
X99191Y99189D01*
X99169Y99156D01*
X99147Y99107D01*
X99124Y99047D01*
X99102Y98976D01*
X99087Y98894D01*
X99083Y98804D01*
Y98774D01*
X99087Y98755D01*
Y98729D01*
X99090Y98703D01*
X99102Y98636D01*
X99117Y98557D01*
X99143Y98475D01*
X99177Y98396D01*
X99225Y98318D01*
Y98314D01*
X99233Y98310D01*
X99251Y98288D01*
X99281Y98251D01*
X99322Y98209D01*
X99379Y98164D01*
X99442Y98120D01*
X99517Y98079D01*
X99599Y98045D01*
X99603D01*
X99610Y98041D01*
X99622Y98037D01*
X99640Y98034D01*
X99659Y98026D01*
X99685Y98019D01*
X99745Y98007D01*
X99820Y97992D01*
X99902Y97978D01*
X99988Y97970D01*
X100082Y97966D01*
X100085D01*
X100097D01*
X100111D01*
X100134D01*
X100164Y97970D01*
X100198D01*
X100231Y97974D01*
X100272Y97978D01*
X100358Y97989D01*
X100456Y98007D01*
X100549Y98030D01*
X100643Y98060D01*
X100646D01*
X100654Y98063D01*
X100665Y98071D01*
X100680Y98079D01*
X100725Y98101D01*
X100777Y98131D01*
X100837Y98172D01*
X100893Y98221D01*
X100953Y98280D01*
X101002Y98348D01*
Y98352D01*
X101005Y98355D01*
X101013Y98366D01*
X101020Y98381D01*
X101039Y98422D01*
X101058Y98475D01*
X101080Y98539D01*
X101099Y98613D01*
X101114Y98692D01*
X101118Y98778D01*
Y98804D01*
X101114Y98823D01*
Y98849D01*
X101110Y98875D01*
X101099Y98942D01*
X101076Y99014D01*
X101050Y99092D01*
X101009Y99174D01*
X100987Y99212D01*
X100957Y99249D01*
X100953Y99253D01*
X100949Y99257D01*
X100938Y99268D01*
X100927Y99279D01*
X100908Y99298D01*
X100890Y99313D01*
X100837Y99354D01*
X100770Y99399D01*
X100688Y99444D01*
X100590Y99485D01*
X100478Y99515D01*
X100564Y99848D01*
X100568D01*
X100583Y99844D01*
D02*
G37*
D12*
X2165Y3051D02*
X52953D01*
Y118012D01*
X2165D02*
X52953D01*
X2165Y3051D02*
Y118012D01*
X122626Y73130D02*
Y107972D01*
Y73130D02*
X149028D01*
Y107972D01*
X122626D02*
X149028D01*
X99040Y92898D02*
X103764D01*
Y102347D01*
X99040D02*
X103764D01*
X99040Y92898D02*
Y102347D01*
M02*
