M48
;Layer_Color=9474304
;FILE_FORMAT=2:5
INCH,TZ
;TYPE=PLATED
T1F00S00C0.00787
T2F00S00C0.01181
T3F00S00C0.03543
T4F00S00C0.04331
T5F00S00C0.05118
T6F00S00C0.13386
%
T01
X84449Y86417
X88779
Y90748
X84449
T02
X86614Y74803
X97441Y76772
X101402Y90551
X101154Y105879
X88583Y99713
X73819Y111221
X122047Y112205
X125000Y126969
X118110Y90551
X110236Y82677
X31496Y147638
X158465Y87598
T03
X62992Y58740
Y68740
Y78740
Y88740
X96299Y57087
X106299
X116299
X126299
X136299
X133701Y125827
X143701
Y135827
X133701
Y145827
X143701
T04
X68898Y19685
X88583
X112205
X131890
X155512
X96457Y137795
X76772
X177165Y143701
Y124016
X175197Y19685
T05
X12795Y13366
X42323
Y79508
Y107067
X12795Y93287
T06
X165354Y70866
M30
