G04*
G04 #@! TF.GenerationSoftware,Altium Limited,Altium Designer,21.6.1 (37)*
G04*
G04 Layer_Physical_Order=2*
G04 Layer_Color=16711680*
%FSLAX25Y25*%
%MOIN*%
G70*
G04*
G04 #@! TF.SameCoordinates,35447041-0B5E-4321-A350-582B76B9CE47*
G04*
G04*
G04 #@! TF.FilePolarity,Positive*
G04*
G01*
G75*
%ADD11C,0.01000*%
%ADD19R,0.05906X0.05906*%
%ADD34C,0.07874*%
%ADD35R,0.07874X0.07874*%
%ADD40C,0.02000*%
%ADD41C,0.05000*%
%ADD43R,0.06299X0.06299*%
%ADD44C,0.06299*%
%ADD45R,0.06299X0.06299*%
%ADD46C,0.05906*%
%ADD47R,0.05906X0.05906*%
%ADD48C,0.17717*%
%ADD49C,0.02362*%
%ADD50C,0.01968*%
G36*
X185830Y153159D02*
X187650Y152405D01*
X189288Y151311D01*
X190681Y149918D01*
X191775Y148280D01*
X192529Y146460D01*
X192913Y144528D01*
Y143543D01*
Y13937D01*
Y12952D01*
X192529Y11020D01*
X191775Y9200D01*
X190681Y7562D01*
X189288Y6169D01*
X187650Y5075D01*
X185830Y4321D01*
X183898Y3937D01*
X13937D01*
X12952Y3937D01*
X11020Y4321D01*
X9200Y5075D01*
X7562Y6169D01*
X6169Y7562D01*
X5075Y9200D01*
X4321Y11020D01*
X3937Y12952D01*
Y13937D01*
Y143543D01*
X3937Y144528D01*
X4321Y146460D01*
X5075Y148280D01*
X6169Y149918D01*
X7562Y151311D01*
X9200Y152405D01*
X11020Y153159D01*
X12952Y153543D01*
X183898D01*
X185830Y153159D01*
D02*
G37*
%LPC*%
G36*
X134155Y149279D02*
X133951D01*
Y146077D01*
X137153D01*
Y146281D01*
X136918Y147160D01*
X136464Y147947D01*
X135821Y148590D01*
X135034Y149044D01*
X134155Y149279D01*
D02*
G37*
G36*
X133451D02*
X133246D01*
X132368Y149044D01*
X131581Y148590D01*
X130938Y147947D01*
X130483Y147160D01*
X130248Y146281D01*
Y146077D01*
X133451D01*
Y149279D01*
D02*
G37*
G36*
X144155D02*
X143246D01*
X142368Y149044D01*
X141581Y148590D01*
X140938Y147947D01*
X140483Y147160D01*
X140248Y146281D01*
Y145372D01*
X140483Y144494D01*
X140938Y143707D01*
X141581Y143064D01*
X142368Y142609D01*
X143246Y142374D01*
X144155D01*
X145034Y142609D01*
X145821Y143064D01*
X146464Y143707D01*
X146918Y144494D01*
X147153Y145372D01*
Y146281D01*
X146918Y147160D01*
X146464Y147947D01*
X145821Y148590D01*
X145034Y149044D01*
X144155Y149279D01*
D02*
G37*
G36*
X137153Y145577D02*
X133951D01*
Y142374D01*
X134155D01*
X135034Y142609D01*
X135821Y143064D01*
X136464Y143707D01*
X136918Y144494D01*
X137153Y145372D01*
Y145577D01*
D02*
G37*
G36*
X133451D02*
X130248D01*
Y145372D01*
X130483Y144494D01*
X130938Y143707D01*
X131581Y143064D01*
X132368Y142609D01*
X133246Y142374D01*
X133451D01*
Y145577D01*
D02*
G37*
G36*
X177646Y147350D02*
X176685D01*
X175757Y147102D01*
X174924Y146621D01*
X174245Y145942D01*
X173765Y145109D01*
X173516Y144181D01*
Y143220D01*
X173765Y142292D01*
X174245Y141460D01*
X174924Y140780D01*
X175757Y140300D01*
X176685Y140051D01*
X177646D01*
X178574Y140300D01*
X179406Y140780D01*
X180086Y141460D01*
X180566Y142292D01*
X180815Y143220D01*
Y144181D01*
X180566Y145109D01*
X180086Y145942D01*
X179406Y146621D01*
X178574Y147102D01*
X177646Y147350D01*
D02*
G37*
G36*
X100106Y141445D02*
X96707D01*
Y138045D01*
X100106D01*
Y141445D01*
D02*
G37*
G36*
X96207D02*
X92807D01*
Y138045D01*
X96207D01*
Y141445D01*
D02*
G37*
G36*
X100106Y137545D02*
X96707D01*
Y134146D01*
X100106D01*
Y137545D01*
D02*
G37*
G36*
X96207D02*
X92807D01*
Y134146D01*
X96207D01*
Y137545D01*
D02*
G37*
G36*
X144155Y139279D02*
X143246D01*
X142368Y139044D01*
X141581Y138590D01*
X140938Y137947D01*
X140483Y137160D01*
X140248Y136281D01*
Y135372D01*
X140483Y134494D01*
X140628Y134244D01*
X139634Y133428D01*
X138079Y132597D01*
X136392Y132085D01*
X134681Y131916D01*
X134637Y131925D01*
X134412D01*
X134346Y132425D01*
X135034Y132609D01*
X135821Y133064D01*
X136464Y133707D01*
X136918Y134494D01*
X137153Y135372D01*
Y136281D01*
X136918Y137160D01*
X136464Y137947D01*
X135821Y138590D01*
X135034Y139044D01*
X134155Y139279D01*
X133246D01*
X132368Y139044D01*
X131581Y138590D01*
X130938Y137947D01*
X130483Y137160D01*
X130248Y136281D01*
Y135372D01*
X130483Y134494D01*
X130938Y133707D01*
X131581Y133064D01*
X132368Y132609D01*
X133056Y132425D01*
X132990Y131925D01*
X129142D01*
Y131939D01*
X127416Y131804D01*
X125732Y131400D01*
X124133Y130737D01*
X122657Y129832D01*
X121340Y128708D01*
X121350Y128698D01*
X105554Y112902D01*
X105544Y112912D01*
X104420Y111595D01*
X103515Y110119D01*
X102852Y108519D01*
X102448Y106836D01*
X102313Y105110D01*
X102327D01*
Y95246D01*
X102338Y95192D01*
X102153Y93787D01*
X101589Y92427D01*
X101440Y92232D01*
X101067D01*
X100450Y91976D01*
X99977Y91503D01*
X99721Y90886D01*
Y90217D01*
X99977Y89599D01*
X100450Y89126D01*
X101067Y88870D01*
X101736D01*
X102354Y89126D01*
X102827Y89599D01*
X103083Y90217D01*
Y90886D01*
X103059Y90944D01*
X103090Y90981D01*
X103799Y92308D01*
X104236Y93748D01*
X104383Y95246D01*
X104366D01*
Y105110D01*
X104357Y105153D01*
X104526Y106864D01*
X105038Y108551D01*
X105869Y110106D01*
X106960Y111435D01*
X106996Y111460D01*
X122630Y127094D01*
X123153Y126920D01*
X123191Y126602D01*
X109491Y112902D01*
X109481Y112912D01*
X108357Y111595D01*
X107452Y110119D01*
X106790Y108519D01*
X106385Y106836D01*
X106249Y105110D01*
X106264D01*
Y90756D01*
X106272Y90713D01*
X106104Y89002D01*
X105592Y87315D01*
X104761Y85760D01*
X103670Y84431D01*
X103634Y84406D01*
X97680Y78453D01*
X97107D01*
X96489Y78197D01*
X96016Y77724D01*
X95760Y77106D01*
Y76437D01*
X96016Y75819D01*
X96489Y75346D01*
X97107Y75090D01*
X97775D01*
X98393Y75346D01*
X98866Y75819D01*
X99122Y76437D01*
Y77011D01*
X105076Y82964D01*
X105086Y82954D01*
X106210Y84271D01*
X107115Y85747D01*
X107777Y87347D01*
X108182Y89030D01*
X108317Y90756D01*
X108303D01*
Y105110D01*
X108294Y105153D01*
X108463Y106864D01*
X108975Y108551D01*
X109806Y110106D01*
X110897Y111435D01*
X110933Y111460D01*
X124761Y125287D01*
X125334D01*
X125952Y125543D01*
X126425Y126016D01*
X126681Y126634D01*
Y127303D01*
X126425Y127921D01*
X125952Y128394D01*
X125543Y128563D01*
X125508Y129112D01*
X125700Y129214D01*
X127388Y129726D01*
X129099Y129895D01*
X129142Y129886D01*
X134637D01*
Y129871D01*
X136363Y130007D01*
X138047Y130412D01*
X139647Y131074D01*
X141123Y131979D01*
X142066Y132784D01*
X142368Y132609D01*
X143246Y132374D01*
X144155D01*
X145034Y132609D01*
X145821Y133064D01*
X146464Y133707D01*
X146918Y134494D01*
X147153Y135372D01*
Y136281D01*
X146918Y137160D01*
X146464Y137947D01*
X145821Y138590D01*
X145034Y139044D01*
X144155Y139279D01*
D02*
G37*
G36*
X77252Y141445D02*
X76291D01*
X75363Y141196D01*
X74531Y140716D01*
X73851Y140036D01*
X73371Y139204D01*
X73177Y138479D01*
X61813Y127116D01*
X61787Y127083D01*
X60761Y126241D01*
X59554Y125595D01*
X58244Y125198D01*
X56923Y125068D01*
X56881Y125073D01*
X45697D01*
Y125087D01*
X43657Y124927D01*
X41668Y124449D01*
X39777Y123666D01*
X38032Y122597D01*
X36476Y121268D01*
X36487Y121258D01*
X12953Y97724D01*
X12211D01*
X11083Y97422D01*
X10071Y96838D01*
X9245Y96012D01*
X8661Y95000D01*
X8358Y93872D01*
Y92703D01*
X8661Y91575D01*
X9245Y90563D01*
X10071Y89737D01*
X11083Y89153D01*
X12211Y88850D01*
X13379D01*
X14508Y89153D01*
X15520Y89737D01*
X16346Y90563D01*
X16930Y91575D01*
X17232Y92703D01*
Y93445D01*
X40766Y116979D01*
X40791Y117012D01*
X41817Y117854D01*
X43025Y118499D01*
X44335Y118897D01*
X45656Y119027D01*
X45697Y119021D01*
X56881D01*
Y119007D01*
X58921Y119168D01*
X60911Y119645D01*
X62802Y120428D01*
X64546Y121497D01*
X66102Y122826D01*
X66092Y122836D01*
X77456Y134200D01*
X78180Y134394D01*
X79013Y134875D01*
X79692Y135554D01*
X80172Y136387D01*
X80421Y137315D01*
Y138276D01*
X80172Y139204D01*
X79692Y140036D01*
X79013Y140716D01*
X78180Y141196D01*
X77252Y141445D01*
D02*
G37*
G36*
X134155Y129279D02*
X133246D01*
X132368Y129044D01*
X131581Y128590D01*
X130938Y127947D01*
X130483Y127160D01*
X130248Y126281D01*
Y125372D01*
X130483Y124494D01*
X130938Y123707D01*
X131581Y123064D01*
X132368Y122609D01*
X133246Y122374D01*
X134155D01*
X135034Y122609D01*
X135821Y123064D01*
X136464Y123707D01*
X136918Y124494D01*
X137153Y125372D01*
Y126281D01*
X136918Y127160D01*
X136464Y127947D01*
X135821Y128590D01*
X135034Y129044D01*
X134155Y129279D01*
D02*
G37*
G36*
X180815Y127665D02*
X173516D01*
Y120366D01*
X180815D01*
Y127665D01*
D02*
G37*
G36*
X147153Y129279D02*
X140248D01*
Y123816D01*
X138159Y121726D01*
X138135Y121691D01*
X136822Y120614D01*
X135287Y119793D01*
X133622Y119288D01*
X131931Y119122D01*
X131890Y119130D01*
X127174D01*
Y119144D01*
X125447Y119008D01*
X123764Y118604D01*
X122164Y117942D01*
X120688Y117037D01*
X119371Y115912D01*
X119382Y115902D01*
X114436Y110957D01*
X114426Y110967D01*
X113307Y109657D01*
X112407Y108187D01*
X111747Y106595D01*
X111345Y104920D01*
X111210Y103202D01*
X111224D01*
Y87912D01*
X111185Y87430D01*
X111185Y87430D01*
Y87429D01*
X111140Y86949D01*
X111009Y85949D01*
X110437Y84570D01*
X110275Y84358D01*
X109902D01*
X109284Y84102D01*
X108811Y83629D01*
X108555Y83012D01*
Y82343D01*
X108811Y81725D01*
X109284Y81252D01*
X109902Y80996D01*
X110571D01*
X111188Y81252D01*
X111661Y81725D01*
X111917Y82343D01*
Y83012D01*
X111893Y83069D01*
X111935Y83119D01*
X112652Y84461D01*
X113093Y85916D01*
X113242Y87429D01*
X113242D01*
X113263Y87744D01*
Y103202D01*
X113255Y103244D01*
X113423Y104946D01*
X113931Y106623D01*
X114758Y108169D01*
X115842Y109491D01*
X115878Y109515D01*
X120824Y114460D01*
X120848Y114497D01*
X122177Y115588D01*
X123732Y116419D01*
X125419Y116931D01*
X127130Y117099D01*
X127174Y117091D01*
X131890D01*
Y117077D01*
X133598Y117211D01*
X135264Y117611D01*
X136847Y118267D01*
X138308Y119162D01*
X139610Y120275D01*
X139601Y120284D01*
X141690Y122374D01*
X147153D01*
Y129279D01*
D02*
G37*
G36*
X42907Y111504D02*
X41739D01*
X40610Y111202D01*
X39599Y110617D01*
X38772Y109791D01*
X38188Y108780D01*
X37886Y107651D01*
Y106483D01*
X38188Y105354D01*
X38772Y104342D01*
X39599Y103516D01*
X40610Y102932D01*
X41739Y102630D01*
X42907D01*
X44036Y102932D01*
X45047Y103516D01*
X45873Y104342D01*
X46457Y105354D01*
X46760Y106483D01*
Y107651D01*
X46457Y108780D01*
X45873Y109791D01*
X45047Y110617D01*
X44036Y111202D01*
X42907Y111504D01*
D02*
G37*
G36*
X74153Y112902D02*
X73484D01*
X72867Y112646D01*
X72394Y112173D01*
X72138Y111555D01*
Y110886D01*
X72394Y110268D01*
X72799Y109863D01*
Y102324D01*
X72811Y102264D01*
X72620Y100811D01*
X72036Y99402D01*
X71144Y98239D01*
X71094Y98206D01*
X71067Y98166D01*
X70305Y97515D01*
X70315Y97505D01*
X64606Y91795D01*
X64325Y91958D01*
X63447Y92193D01*
X62538D01*
X61659Y91958D01*
X60872Y91503D01*
X60229Y90860D01*
X59775Y90073D01*
X59539Y89195D01*
Y88286D01*
X59775Y87407D01*
X60229Y86620D01*
X60872Y85977D01*
X61659Y85523D01*
X62538Y85287D01*
X63447D01*
X64325Y85523D01*
X65112Y85977D01*
X65755Y86620D01*
X66210Y87407D01*
X66445Y88286D01*
Y89195D01*
X66210Y90073D01*
X66048Y90354D01*
X71757Y96063D01*
X71781Y96100D01*
X72475Y96669D01*
X73110Y97190D01*
X74665Y98021D01*
X76352Y98533D01*
X78063Y98702D01*
X78107Y98693D01*
X87225D01*
X87630Y98287D01*
X88248Y98032D01*
X88917D01*
X89535Y98287D01*
X90008Y98760D01*
X90264Y99378D01*
Y100047D01*
X90008Y100665D01*
X89535Y101138D01*
X88917Y101394D01*
X88248D01*
X87630Y101138D01*
X87225Y100732D01*
X78107D01*
Y100747D01*
X76381Y100611D01*
X75080Y100299D01*
X74685Y100718D01*
X74705Y100786D01*
X74857Y102324D01*
X74839D01*
Y109863D01*
X75244Y110268D01*
X75500Y110886D01*
Y111555D01*
X75244Y112173D01*
X74771Y112646D01*
X74153Y112902D01*
D02*
G37*
G36*
X63447Y82193D02*
X63242D01*
Y78990D01*
X66445D01*
Y79195D01*
X66210Y80073D01*
X65755Y80860D01*
X65112Y81503D01*
X64325Y81958D01*
X63447Y82193D01*
D02*
G37*
G36*
X62742D02*
X62538D01*
X61659Y81958D01*
X60872Y81503D01*
X60229Y80860D01*
X59775Y80073D01*
X59539Y79195D01*
Y78990D01*
X62742D01*
Y82193D01*
D02*
G37*
G36*
X66445Y78490D02*
X63242D01*
Y75287D01*
X63447D01*
X64325Y75523D01*
X65112Y75977D01*
X65755Y76620D01*
X66210Y77407D01*
X66445Y78286D01*
Y78490D01*
D02*
G37*
G36*
X62742D02*
X59539D01*
Y78286D01*
X59775Y77407D01*
X60229Y76620D01*
X60872Y75977D01*
X61659Y75523D01*
X62538Y75287D01*
X62742D01*
Y78490D01*
D02*
G37*
G36*
X42907Y83945D02*
X41739D01*
X40610Y83643D01*
X39599Y83058D01*
X38772Y82232D01*
X38188Y81221D01*
X37886Y80092D01*
Y78924D01*
X38188Y77795D01*
X38772Y76784D01*
X39599Y75957D01*
X40610Y75373D01*
X41739Y75071D01*
X42907D01*
X44036Y75373D01*
X45047Y75957D01*
X45873Y76784D01*
X46457Y77795D01*
X46760Y78924D01*
Y80092D01*
X46457Y81221D01*
X45873Y82232D01*
X45047Y83058D01*
X44036Y83643D01*
X42907Y83945D01*
D02*
G37*
G36*
X63447Y72193D02*
X62538D01*
X61659Y71958D01*
X60872Y71503D01*
X60229Y70860D01*
X59775Y70073D01*
X59539Y69195D01*
Y68286D01*
X59775Y67407D01*
X60229Y66620D01*
X60872Y65977D01*
X61659Y65523D01*
X62538Y65287D01*
X63447D01*
X64325Y65523D01*
X65112Y65977D01*
X65755Y66620D01*
X66210Y67407D01*
X66445Y68286D01*
Y69195D01*
X66210Y70073D01*
X65755Y70860D01*
X65112Y71503D01*
X64325Y71958D01*
X63447Y72193D01*
D02*
G37*
G36*
X118445Y92232D02*
X117776D01*
X117158Y91976D01*
X116685Y91503D01*
X116429Y90886D01*
Y90217D01*
X116581Y89850D01*
Y73040D01*
X116594Y72972D01*
X116438Y71383D01*
X115955Y69791D01*
X115170Y68322D01*
X114158Y67089D01*
X114100Y67050D01*
X107413Y60363D01*
X106754Y60539D01*
X105845D01*
X104966Y60304D01*
X104179Y59850D01*
X103536Y59207D01*
X103082Y58419D01*
X102847Y57541D01*
Y56632D01*
X103082Y55754D01*
X103536Y54967D01*
X104179Y54324D01*
X104966Y53869D01*
X105845Y53634D01*
X106754D01*
X107632Y53869D01*
X108419Y54324D01*
X109062Y54967D01*
X109517Y55754D01*
X109752Y56632D01*
Y57541D01*
X109575Y58200D01*
X116263Y64887D01*
X116267Y64883D01*
X117443Y66259D01*
X118388Y67803D01*
X119081Y69475D01*
X119504Y71235D01*
X119646Y73040D01*
X119640D01*
Y89850D01*
X119791Y90217D01*
Y90886D01*
X119535Y91503D01*
X119062Y91976D01*
X118445Y92232D01*
D02*
G37*
G36*
X99752Y60539D02*
X96549D01*
Y57337D01*
X99752D01*
Y60539D01*
D02*
G37*
G36*
X96049D02*
X92847D01*
Y57337D01*
X96049D01*
Y60539D01*
D02*
G37*
G36*
X66445Y62193D02*
X59539D01*
Y55287D01*
X66445D01*
Y62193D01*
D02*
G37*
G36*
X136754Y60539D02*
X135845D01*
X134967Y60304D01*
X134179Y59850D01*
X133536Y59207D01*
X133082Y58419D01*
X132846Y57541D01*
Y56632D01*
X133082Y55754D01*
X133536Y54967D01*
X134179Y54324D01*
X134967Y53869D01*
X135845Y53634D01*
X136754D01*
X137632Y53869D01*
X138419Y54324D01*
X139062Y54967D01*
X139517Y55754D01*
X139752Y56632D01*
Y57541D01*
X139517Y58419D01*
X139062Y59207D01*
X138419Y59850D01*
X137632Y60304D01*
X136754Y60539D01*
D02*
G37*
G36*
X126754D02*
X125845D01*
X124967Y60304D01*
X124179Y59850D01*
X123536Y59207D01*
X123082Y58419D01*
X122846Y57541D01*
Y56632D01*
X123082Y55754D01*
X123536Y54967D01*
X124179Y54324D01*
X124967Y53869D01*
X125845Y53634D01*
X126754D01*
X127632Y53869D01*
X128419Y54324D01*
X129062Y54967D01*
X129517Y55754D01*
X129752Y56632D01*
Y57541D01*
X129517Y58419D01*
X129062Y59207D01*
X128419Y59850D01*
X127632Y60304D01*
X126754Y60539D01*
D02*
G37*
G36*
X116754D02*
X115845D01*
X114966Y60304D01*
X114179Y59850D01*
X113536Y59207D01*
X113082Y58419D01*
X112847Y57541D01*
Y56632D01*
X113082Y55754D01*
X113536Y54967D01*
X114179Y54324D01*
X114966Y53869D01*
X115845Y53634D01*
X116754D01*
X117632Y53869D01*
X118419Y54324D01*
X119062Y54967D01*
X119517Y55754D01*
X119752Y56632D01*
Y57541D01*
X119517Y58419D01*
X119062Y59207D01*
X118419Y59850D01*
X117632Y60304D01*
X116754Y60539D01*
D02*
G37*
G36*
X99752Y56837D02*
X96549D01*
Y53634D01*
X99752D01*
Y56837D01*
D02*
G37*
G36*
X96049D02*
X92847D01*
Y53634D01*
X96049D01*
Y56837D01*
D02*
G37*
G36*
X159161Y23335D02*
X155762D01*
Y19935D01*
X159161D01*
Y23335D01*
D02*
G37*
G36*
X155262D02*
X151862D01*
Y19935D01*
X155262D01*
Y23335D01*
D02*
G37*
G36*
X132370D02*
X132140D01*
Y19935D01*
X135539D01*
Y20166D01*
X135291Y21094D01*
X134810Y21926D01*
X134131Y22605D01*
X133299Y23086D01*
X132370Y23335D01*
D02*
G37*
G36*
X131640D02*
X131409D01*
X130481Y23086D01*
X129649Y22605D01*
X128969Y21926D01*
X128489Y21094D01*
X128240Y20166D01*
Y19935D01*
X131640D01*
Y23335D01*
D02*
G37*
G36*
X72547D02*
X69148D01*
Y19935D01*
X72547D01*
Y23335D01*
D02*
G37*
G36*
X68648D02*
X65248D01*
Y19935D01*
X68648D01*
Y23335D01*
D02*
G37*
G36*
X175677D02*
X174716D01*
X173788Y23086D01*
X172956Y22605D01*
X172276Y21926D01*
X171796Y21094D01*
X171547Y20166D01*
Y19205D01*
X171796Y18276D01*
X172276Y17444D01*
X172956Y16765D01*
X173788Y16284D01*
X174716Y16035D01*
X175677D01*
X176605Y16284D01*
X177438Y16765D01*
X178117Y17444D01*
X178598Y18276D01*
X178847Y19205D01*
Y20166D01*
X178598Y21094D01*
X178117Y21926D01*
X177438Y22605D01*
X176605Y23086D01*
X175677Y23335D01*
D02*
G37*
G36*
X159161Y19435D02*
X155762D01*
Y16035D01*
X159161D01*
Y19435D01*
D02*
G37*
G36*
X155262D02*
X151862D01*
Y16035D01*
X155262D01*
Y19435D01*
D02*
G37*
G36*
X135539D02*
X132140D01*
Y16035D01*
X132370D01*
X133299Y16284D01*
X134131Y16765D01*
X134810Y17444D01*
X135291Y18276D01*
X135539Y19205D01*
Y19435D01*
D02*
G37*
G36*
X131640D02*
X128240D01*
Y19205D01*
X128489Y18276D01*
X128969Y17444D01*
X129649Y16765D01*
X130481Y16284D01*
X131409Y16035D01*
X131640D01*
Y19435D01*
D02*
G37*
G36*
X115854Y23335D02*
X108555D01*
Y16035D01*
X115854D01*
Y23335D01*
D02*
G37*
G36*
X89063D02*
X88102D01*
X87174Y23086D01*
X86342Y22605D01*
X85662Y21926D01*
X85182Y21094D01*
X84933Y20166D01*
Y19205D01*
X85182Y18276D01*
X85662Y17444D01*
X86342Y16765D01*
X87174Y16284D01*
X88102Y16035D01*
X89063D01*
X89991Y16284D01*
X90824Y16765D01*
X91503Y17444D01*
X91984Y18276D01*
X92232Y19205D01*
Y20166D01*
X91984Y21094D01*
X91503Y21926D01*
X90824Y22605D01*
X89991Y23086D01*
X89063Y23335D01*
D02*
G37*
G36*
X72547Y19435D02*
X69148D01*
Y16035D01*
X72547D01*
Y19435D01*
D02*
G37*
G36*
X68648D02*
X65248D01*
Y16035D01*
X68648D01*
Y19435D01*
D02*
G37*
G36*
X13379Y17803D02*
X13045D01*
Y13616D01*
X17232D01*
Y13950D01*
X16930Y15079D01*
X16346Y16091D01*
X15520Y16917D01*
X14508Y17501D01*
X13379Y17803D01*
D02*
G37*
G36*
X12545D02*
X12211D01*
X11083Y17501D01*
X10071Y16917D01*
X9245Y16091D01*
X8661Y15079D01*
X8358Y13950D01*
Y13616D01*
X12545D01*
Y17803D01*
D02*
G37*
G36*
X46760D02*
X37886D01*
Y8929D01*
X46760D01*
Y17803D01*
D02*
G37*
G36*
X17232Y13116D02*
X13045D01*
Y8929D01*
X13379D01*
X14508Y9232D01*
X15520Y9816D01*
X16346Y10642D01*
X16930Y11654D01*
X17232Y12782D01*
Y13116D01*
D02*
G37*
G36*
X12545D02*
X8358D01*
Y12782D01*
X8661Y11654D01*
X9245Y10642D01*
X10071Y9816D01*
X11083Y9232D01*
X12211Y8929D01*
X12545D01*
Y13116D01*
D02*
G37*
%LPD*%
D11*
X104355Y83685D02*
X105014Y84412D01*
X105598Y85201D01*
X106103Y86042D01*
X106522Y86930D01*
X106853Y87853D01*
X107091Y88805D01*
X107235Y89776D01*
X107283Y90756D01*
X110212Y112181D02*
X109553Y111454D01*
X108969Y110666D01*
X108464Y109824D01*
X108045Y108937D01*
X107714Y108013D01*
X107476Y107061D01*
X107332Y106090D01*
X107283Y105110D01*
X129142Y130905D02*
X128162Y130857D01*
X127191Y130713D01*
X126239Y130475D01*
X125315Y130144D01*
X124428Y129725D01*
X123586Y129220D01*
X122798Y128636D01*
X122071Y127977D01*
X106275Y112181D02*
X105616Y111454D01*
X105032Y110666D01*
X104527Y109824D01*
X104108Y108937D01*
X103777Y108013D01*
X103539Y107061D01*
X103395Y106090D01*
X103347Y105110D01*
X127174Y118110D02*
X126193Y118062D01*
X125223Y117918D01*
X124271Y117680D01*
X123347Y117349D01*
X122460Y116929D01*
X121618Y116425D01*
X120830Y115840D01*
X120103Y115181D01*
X115157Y110236D02*
X114502Y109513D01*
X113920Y108729D01*
X113418Y107891D01*
X113001Y107009D01*
X112672Y106090D01*
X112435Y105143D01*
X112292Y104177D01*
X112244Y103202D01*
X131890Y118110D02*
X132859Y118158D01*
X133818Y118300D01*
X134759Y118536D01*
X135673Y118863D01*
X136549Y119277D01*
X137382Y119776D01*
X138161Y120354D01*
X138880Y121005D01*
X71815Y97485D02*
X71036Y96784D01*
X78107Y99713D02*
X77136Y99665D01*
X76175Y99524D01*
X75231Y99290D01*
X74315Y98966D01*
X73435Y98554D01*
X72599Y98059D01*
X71815Y97485D01*
X71815D02*
X72512Y98302D01*
X73073Y99217D01*
X73484Y100209D01*
X73735Y101253D01*
X73819Y102324D01*
X134637Y130905D02*
X135618Y130954D01*
X136588Y131098D01*
X137540Y131336D01*
X138464Y131667D01*
X139351Y132086D01*
X140193Y132591D01*
X140981Y133175D01*
X141709Y133834D01*
X101402Y90551D02*
X102078Y91343D01*
X102623Y92232D01*
X103022Y93194D01*
X103265Y94207D01*
X103347Y95246D01*
X110236Y82677D02*
X110921Y83479D01*
X111472Y84378D01*
X111876Y85353D01*
X112122Y86378D01*
X112205Y87429D01*
X62992Y88740D02*
X71036Y96784D01*
X107283Y90756D02*
Y105110D01*
X110212Y112181D02*
X125000Y126969D01*
X106275Y112181D02*
X122071Y127977D01*
X78107Y99713D02*
X88583D01*
X115157Y110236D02*
X120103Y115181D01*
X129142Y130905D02*
X134637D01*
X103347Y95246D02*
Y105110D01*
X112244Y87744D02*
Y103202D01*
X127174Y118110D02*
X131890D01*
X138880Y121005D02*
X143701Y125827D01*
X73819Y102324D02*
Y111221D01*
X141709Y133834D02*
X143701Y135827D01*
X97441Y76772D02*
X104355Y83685D01*
D19*
X62992Y58740D02*
D03*
X143701Y125827D02*
D03*
D34*
X12795Y13366D02*
D03*
X42323Y107067D02*
D03*
Y79508D02*
D03*
X12795Y93287D02*
D03*
D35*
X42323Y13366D02*
D03*
D40*
X115181Y65969D02*
X115840Y66696D01*
X116425Y67484D01*
X116929Y68326D01*
X117349Y69213D01*
X117680Y70137D01*
X117918Y71089D01*
X118062Y72060D01*
X118110Y73040D01*
X106299Y57087D02*
X115181Y65969D01*
X118110Y73040D02*
Y90551D01*
D41*
X45697Y122047D02*
X44717Y121999D01*
X43746Y121855D01*
X42794Y121617D01*
X41870Y121286D01*
X40983Y120867D01*
X40142Y120362D01*
X39353Y119777D01*
X38626Y119118D01*
X56881Y122047D02*
X57862Y122095D01*
X58832Y122239D01*
X59784Y122478D01*
X60708Y122808D01*
X61595Y123228D01*
X62437Y123732D01*
X63225Y124317D01*
X63952Y124976D01*
X12795Y93287D02*
X38626Y119118D01*
X45697Y122047D02*
X56881D01*
X63952Y124976D02*
X76772Y137795D01*
D43*
X68898Y19685D02*
D03*
X112205D02*
D03*
X155512D02*
D03*
X96457Y137795D02*
D03*
D44*
X88583Y19685D02*
D03*
X131890D02*
D03*
X175197D02*
D03*
X177165Y143701D02*
D03*
X76772Y137795D02*
D03*
D45*
X177165Y124016D02*
D03*
D46*
X62992Y88740D02*
D03*
Y78740D02*
D03*
Y68740D02*
D03*
X136299Y57087D02*
D03*
X126299D02*
D03*
X116299D02*
D03*
X106299D02*
D03*
X133701Y125827D02*
D03*
X143701Y135827D02*
D03*
X133701D02*
D03*
X143701Y145827D02*
D03*
X133701D02*
D03*
D47*
X96299Y57087D02*
D03*
D48*
X165354Y70866D02*
D03*
D49*
X86614Y74803D02*
D03*
X31496Y147638D02*
D03*
X158465Y87598D02*
D03*
X101154Y105879D02*
D03*
X122047Y112205D02*
D03*
X118110Y90551D02*
D03*
X125000Y126969D02*
D03*
X73819Y111221D02*
D03*
X88583Y99713D02*
D03*
X101402Y90551D02*
D03*
X110236Y82677D02*
D03*
X97441Y76772D02*
D03*
D50*
X88779Y86417D02*
D03*
X84449D02*
D03*
X88779Y90748D02*
D03*
X84449D02*
D03*
M02*
